M48
;DRILL file {KiCad 5.0.2-bee76a0~70~ubuntu18.04.1} date Tue 18 Jun 2019 05:13:38 PM -03
;FORMAT={-:-/ absolute / inch / decimal}
FMAT,2
INCH,TZ
T1C0.0315
T2C0.0394
T3C0.0433
T4C0.0472
T5C0.0551
T6C0.0591
T7C0.0787
T8C0.1378
%
G90
G05
T1
X1.225Y-4.875
X1.55Y-4.875
X1.725Y-5.475
X2.125Y-4.875
X2.45Y-4.875
X2.625Y-5.475
X3.025Y-4.875
X3.35Y-4.875
X3.525Y-5.475
X3.925Y-4.875
X4.25Y-4.875
X4.425Y-5.475
X5.3Y-5.475
X5.55Y-5.55
X6.475Y-5.475
X6.725Y-5.55
X7.6Y-4.875
X7.65Y-5.6
X7.975Y-5.6
X8.175Y-1.95
X8.175Y-2.675
X8.175Y-3.4
X8.3Y-5.6
X8.4Y-4.925
X8.525Y-4.975
X7.675Y-5.125
X7.775Y-5.125
X7.875Y-5.125
X8.325Y-5.125
X8.425Y-5.125
X8.525Y-5.125
X8.5Y-1.65
X8.5Y-1.95
X6.325Y-2.525
X6.325Y-3.025
X8.5Y-3.1
X8.5Y-3.4
X8.5Y-2.375
X8.5Y-2.675
X8.Y-5.125
X8.1Y-5.125
X8.2Y-5.125
T2
X4.4Y-3.8
X7.2Y-3.9
X7.3Y-4.7
X7.5Y-4.4
X7.725Y-4.375
X1.425Y-5.275
X6.9Y-5.425
X7.Y-5.425
X2.875Y-5.775
X2.975Y-5.775
X3.075Y-5.775
X3.175Y-5.775
X3.275Y-5.775
X3.375Y-5.775
X3.475Y-5.775
X3.575Y-5.775
X1.325Y-5.075
X1.425Y-5.075
X1.525Y-5.075
X1.625Y-5.075
X1.725Y-5.075
X1.825Y-5.075
X1.925Y-5.075
X1.55Y-5.775
X1.65Y-5.775
X1.75Y-5.775
X3.225Y-5.275
X6.125Y-3.325
X6.225Y-3.325
X6.325Y-3.325
X7.9Y-5.8
X8.Y-5.8
X8.1Y-5.8
X8.2Y-5.8
X8.3Y-5.8
X8.4Y-5.8
X1.825Y-4.375
X1.925Y-4.375
X4.025Y-5.075
X4.125Y-5.075
X4.225Y-5.075
X4.325Y-5.075
X4.425Y-5.075
X4.525Y-5.075
X4.625Y-5.075
X2.225Y-5.075
X2.325Y-5.075
X2.425Y-5.075
X2.525Y-5.075
X2.625Y-5.075
X2.725Y-5.075
X2.825Y-5.075
X7.2Y-4.225
X7.3Y-4.225
X3.975Y-5.275
X3.625Y-4.375
X3.725Y-4.375
X5.325Y-3.325
X5.425Y-3.325
X5.525Y-3.325
X7.2Y-4.05
X7.3Y-4.05
X1.275Y-5.275
X3.125Y-5.075
X3.225Y-5.075
X3.325Y-5.075
X3.425Y-5.075
X3.525Y-5.075
X3.625Y-5.075
X3.725Y-5.075
X2.175Y-5.275
X4.225Y-1.8
X4.325Y-1.8
X4.425Y-1.8
X5.625Y-5.8
X5.725Y-5.8
X5.825Y-5.8
X5.925Y-5.8
X4.125Y-5.275
X3.075Y-5.275
X2.325Y-5.275
X6.325Y-2.05
X6.425Y-2.05
T3
X4.975Y-3.725
X5.575Y-3.725
X2.225Y-4.375
X2.325Y-4.375
X2.425Y-4.375
X6.15Y-3.725
X6.75Y-3.725
X3.125Y-4.375
X3.225Y-4.375
X3.325Y-4.375
X1.325Y-4.375
X1.425Y-4.375
X1.525Y-4.375
X4.025Y-4.375
X4.125Y-4.375
X4.225Y-4.375
T4
X4.85Y-2.1
X4.85Y-2.9858
X4.1Y-2.0173
X4.1Y-3.1
X6.125Y-2.5
X6.125Y-3.1
X8.675Y-1.8
X8.7518Y-1.5657
X8.7518Y-2.0382
X8.925Y-1.6547
X8.925Y-1.95
X9.2321Y-2.0382
X9.2341Y-1.5638
X9.5258Y-1.6547
X9.5258Y-1.95
X9.7242Y-1.6547
X9.7242Y-1.95
X9.9226Y-1.6547
X9.9226Y-1.95
X8.675Y-3.975
X8.675Y-4.2703
X6.925Y-2.5
X6.925Y-3.1
X8.675Y-2.525
X8.7518Y-2.2907
X8.7518Y-2.7632
X8.925Y-2.3797
X8.925Y-2.675
X9.2321Y-2.7632
X9.2341Y-2.2888
X9.5258Y-2.3797
X9.5258Y-2.675
X9.7242Y-2.3797
X9.7242Y-2.675
X9.9226Y-2.3797
X9.9226Y-2.675
X5.525Y-2.5
X5.525Y-3.1
X5.725Y-2.5
X5.725Y-3.1
X4.525Y-2.1
X4.525Y-2.9858
X8.675Y-3.25
X8.7518Y-3.0157
X8.7518Y-3.4882
X8.925Y-3.1047
X8.925Y-3.4
X9.2321Y-3.4882
X9.2341Y-3.0138
X9.5258Y-3.1047
X9.5258Y-3.4
X9.7242Y-3.1047
X9.7242Y-3.4
X9.9226Y-3.1047
X9.9226Y-3.4
X4.975Y-4.525
X5.275Y-4.525
X5.575Y-4.525
X3.75Y-2.0173
X3.75Y-3.1
X7.9Y-3.975
X7.9Y-4.2703
X7.125Y-2.5
X7.125Y-3.1
X9.0673Y-5.375
X10.15Y-5.375
X3.1423Y-3.625
X4.225Y-3.625
X9.0673Y-4.9
X10.15Y-4.9
X7.325Y-1.65
X7.325Y-2.25
X9.45Y-3.975
X9.45Y-4.2703
X5.925Y-2.5
X5.925Y-3.1
X1.425Y-3.6
X2.5077Y-3.6
X7.325Y-2.5
X7.325Y-3.1
X6.15Y-4.525
X6.45Y-4.525
X6.75Y-4.525
T5
X6.6Y-1.65
X6.8Y-1.65
X10.425Y-4.975
X10.425Y-5.175
X10.425Y-5.375
X10.425Y-5.575
X10.425Y-4.025
X10.425Y-4.225
X5.175Y-1.65
X5.375Y-1.65
X1.25Y-1.65
X1.25Y-1.85
X10.425Y-2.6
X10.425Y-2.8
X10.425Y-3.
X10.425Y-3.2
X10.425Y-3.4
X10.425Y-1.65
X10.425Y-1.85
T6
X10.1Y-3.825
X10.1Y-4.025
X10.1Y-4.225
X10.1Y-4.425
T7
X1.7368Y-1.6644
X1.7368Y-3.1856
T8
X0.925Y-1.35
X0.925Y-5.875
X4.65Y-3.35
X7.6Y-3.625
X10.75Y-1.35
X10.75Y-5.875
T0
M30
