G04 #@! TF.GenerationSoftware,KiCad,Pcbnew,5.0.2-bee76a0~70~ubuntu18.04.1*
G04 #@! TF.CreationDate,2019-06-18T17:13:29-03:00*
G04 #@! TF.ProjectId,estabilizador,65737461-6269-46c6-997a-61646f722e6b,rev?*
G04 #@! TF.SameCoordinates,Original*
G04 #@! TF.FileFunction,Legend,Bot*
G04 #@! TF.FilePolarity,Positive*
%FSLAX46Y46*%
G04 Gerber Fmt 4.6, Leading zero omitted, Abs format (unit mm)*
G04 Created by KiCad (PCBNEW 5.0.2-bee76a0~70~ubuntu18.04.1) date Tue 18 Jun 2019 05:13:29 PM -03*
%MOMM*%
%LPD*%
G01*
G04 APERTURE LIST*
%ADD10C,0.120000*%
%ADD11C,0.150000*%
%ADD12C,0.100000*%
%ADD13C,1.550000*%
%ADD14C,3.400000*%
%ADD15R,3.400000X3.400000*%
%ADD16R,2.100000X2.100000*%
%ADD17O,2.100000X2.100000*%
%ADD18C,2.800000*%
%ADD19R,2.305000X2.400000*%
%ADD20O,2.305000X2.400000*%
%ADD21C,2.480000*%
%ADD22O,4.000000X2.480000*%
%ADD23C,2.600000*%
%ADD24R,2.500000X2.500000*%
%ADD25C,2.500000*%
%ADD26C,1.825000*%
%ADD27O,2.800000X2.800000*%
%ADD28C,2.000000*%
%ADD29O,2.000000X2.000000*%
%ADD30R,2.800000X2.800000*%
%ADD31R,2.000000X2.000000*%
%ADD32R,3.900000X2.900000*%
%ADD33C,4.400000*%
%ADD34R,1.900000X1.900000*%
%ADD35C,1.900000*%
%ADD36O,2.480000X4.000000*%
G04 APERTURE END LIST*
D10*
G04 #@! TO.C,R24*
X34663748Y-115495000D02*
X35186252Y-115495000D01*
X34663748Y-116915000D02*
X35186252Y-116915000D01*
G04 #@! TO.C,R25*
X80383748Y-116915000D02*
X80906252Y-116915000D01*
X80383748Y-115495000D02*
X80906252Y-115495000D01*
G04 #@! TO.C,R26*
X57523748Y-115495000D02*
X58046252Y-115495000D01*
X57523748Y-116915000D02*
X58046252Y-116915000D01*
G04 #@! TO.C,R27*
X103243748Y-116915000D02*
X103766252Y-116915000D01*
X103243748Y-115495000D02*
X103766252Y-115495000D01*
G04 #@! TO.C,R21*
X193600000Y-137288748D02*
X193600000Y-137811252D01*
X195020000Y-137288748D02*
X195020000Y-137811252D01*
G04 #@! TO.C,R22*
X203275000Y-137288748D02*
X203275000Y-137811252D01*
X201855000Y-137288748D02*
X201855000Y-137811252D01*
G04 #@! TO.C,R23*
X210110000Y-137288748D02*
X210110000Y-137811252D01*
X211530000Y-137288748D02*
X211530000Y-137811252D01*
G04 #@! TO.C,R17*
X113062936Y-134345000D02*
X114267064Y-134345000D01*
X113062936Y-136165000D02*
X114267064Y-136165000D01*
G04 #@! TO.C,R19*
X67342936Y-136165000D02*
X68547064Y-136165000D01*
X67342936Y-134345000D02*
X68547064Y-134345000D01*
G04 #@! TO.C,R20*
X44482936Y-134345000D02*
X45687064Y-134345000D01*
X44482936Y-136165000D02*
X45687064Y-136165000D01*
G04 #@! TO.C,R18*
X90202936Y-136165000D02*
X91407064Y-136165000D01*
X90202936Y-134345000D02*
X91407064Y-134345000D01*
G04 #@! TO.C,R6*
X67342936Y-131170000D02*
X68547064Y-131170000D01*
X67342936Y-132990000D02*
X68547064Y-132990000D01*
G04 #@! TO.C,R4*
X90202936Y-132990000D02*
X91407064Y-132990000D01*
X90202936Y-131170000D02*
X91407064Y-131170000D01*
G04 #@! TO.C,R2*
X113062936Y-131170000D02*
X114267064Y-131170000D01*
X113062936Y-132990000D02*
X114267064Y-132990000D01*
G04 #@! TO.C,R7*
X44482936Y-132990000D02*
X45687064Y-132990000D01*
X44482936Y-131170000D02*
X45687064Y-131170000D01*
G04 #@! TO.C,R5*
X213285000Y-135238748D02*
X213285000Y-135761252D01*
X214705000Y-135238748D02*
X214705000Y-135761252D01*
G04 #@! TO.C,R3*
X205030000Y-135238748D02*
X205030000Y-135761252D01*
X206450000Y-135238748D02*
X206450000Y-135761252D01*
G04 #@! TO.C,C11*
X132720000Y-131915000D02*
X132720000Y-130915000D01*
X132220000Y-131415000D02*
X133220000Y-131415000D01*
X133460000Y-125709437D02*
X134524437Y-124645000D01*
X133460000Y-132100563D02*
X134524437Y-133165000D01*
X133460000Y-132100563D02*
X133460000Y-130415000D01*
X133460000Y-125709437D02*
X133460000Y-127395000D01*
X134524437Y-124645000D02*
X141980000Y-124645000D01*
X134524437Y-133165000D02*
X141980000Y-133165000D01*
X141980000Y-133165000D02*
X141980000Y-130415000D01*
X141980000Y-124645000D02*
X141980000Y-127395000D01*
G04 #@! TO.C,C9*
X171900000Y-124645000D02*
X171900000Y-127395000D01*
X171900000Y-133165000D02*
X171900000Y-130415000D01*
X164444437Y-133165000D02*
X171900000Y-133165000D01*
X164444437Y-124645000D02*
X171900000Y-124645000D01*
X163380000Y-125709437D02*
X163380000Y-127395000D01*
X163380000Y-132100563D02*
X163380000Y-130415000D01*
X163380000Y-132100563D02*
X164444437Y-133165000D01*
X163380000Y-125709437D02*
X164444437Y-124645000D01*
X162140000Y-131415000D02*
X163140000Y-131415000D01*
X162640000Y-131915000D02*
X162640000Y-130915000D01*
G04 #@! TO.C,C10*
X138056252Y-121995000D02*
X137533748Y-121995000D01*
X138056252Y-120575000D02*
X137533748Y-120575000D01*
G04 #@! TO.C,C8*
X167656252Y-120575000D02*
X167133748Y-120575000D01*
X167656252Y-121995000D02*
X167133748Y-121995000D01*
G04 #@! TO.C,R1*
X198195000Y-135238748D02*
X198195000Y-135761252D01*
X196775000Y-135238748D02*
X196775000Y-135761252D01*
G04 #@! TO.C,R24*
D11*
X35567857Y-118307380D02*
X35901190Y-117831190D01*
X36139285Y-118307380D02*
X36139285Y-117307380D01*
X35758333Y-117307380D01*
X35663095Y-117355000D01*
X35615476Y-117402619D01*
X35567857Y-117497857D01*
X35567857Y-117640714D01*
X35615476Y-117735952D01*
X35663095Y-117783571D01*
X35758333Y-117831190D01*
X36139285Y-117831190D01*
X35186904Y-117402619D02*
X35139285Y-117355000D01*
X35044047Y-117307380D01*
X34805952Y-117307380D01*
X34710714Y-117355000D01*
X34663095Y-117402619D01*
X34615476Y-117497857D01*
X34615476Y-117593095D01*
X34663095Y-117735952D01*
X35234523Y-118307380D01*
X34615476Y-118307380D01*
X33758333Y-117640714D02*
X33758333Y-118307380D01*
X33996428Y-117259761D02*
X34234523Y-117974047D01*
X33615476Y-117974047D01*
G04 #@! TO.C,R25*
X81287857Y-118307380D02*
X81621190Y-117831190D01*
X81859285Y-118307380D02*
X81859285Y-117307380D01*
X81478333Y-117307380D01*
X81383095Y-117355000D01*
X81335476Y-117402619D01*
X81287857Y-117497857D01*
X81287857Y-117640714D01*
X81335476Y-117735952D01*
X81383095Y-117783571D01*
X81478333Y-117831190D01*
X81859285Y-117831190D01*
X80906904Y-117402619D02*
X80859285Y-117355000D01*
X80764047Y-117307380D01*
X80525952Y-117307380D01*
X80430714Y-117355000D01*
X80383095Y-117402619D01*
X80335476Y-117497857D01*
X80335476Y-117593095D01*
X80383095Y-117735952D01*
X80954523Y-118307380D01*
X80335476Y-118307380D01*
X79430714Y-117307380D02*
X79906904Y-117307380D01*
X79954523Y-117783571D01*
X79906904Y-117735952D01*
X79811666Y-117688333D01*
X79573571Y-117688333D01*
X79478333Y-117735952D01*
X79430714Y-117783571D01*
X79383095Y-117878809D01*
X79383095Y-118116904D01*
X79430714Y-118212142D01*
X79478333Y-118259761D01*
X79573571Y-118307380D01*
X79811666Y-118307380D01*
X79906904Y-118259761D01*
X79954523Y-118212142D01*
G04 #@! TO.C,R26*
X58427857Y-118307380D02*
X58761190Y-117831190D01*
X58999285Y-118307380D02*
X58999285Y-117307380D01*
X58618333Y-117307380D01*
X58523095Y-117355000D01*
X58475476Y-117402619D01*
X58427857Y-117497857D01*
X58427857Y-117640714D01*
X58475476Y-117735952D01*
X58523095Y-117783571D01*
X58618333Y-117831190D01*
X58999285Y-117831190D01*
X58046904Y-117402619D02*
X57999285Y-117355000D01*
X57904047Y-117307380D01*
X57665952Y-117307380D01*
X57570714Y-117355000D01*
X57523095Y-117402619D01*
X57475476Y-117497857D01*
X57475476Y-117593095D01*
X57523095Y-117735952D01*
X58094523Y-118307380D01*
X57475476Y-118307380D01*
X56618333Y-117307380D02*
X56808809Y-117307380D01*
X56904047Y-117355000D01*
X56951666Y-117402619D01*
X57046904Y-117545476D01*
X57094523Y-117735952D01*
X57094523Y-118116904D01*
X57046904Y-118212142D01*
X56999285Y-118259761D01*
X56904047Y-118307380D01*
X56713571Y-118307380D01*
X56618333Y-118259761D01*
X56570714Y-118212142D01*
X56523095Y-118116904D01*
X56523095Y-117878809D01*
X56570714Y-117783571D01*
X56618333Y-117735952D01*
X56713571Y-117688333D01*
X56904047Y-117688333D01*
X56999285Y-117735952D01*
X57046904Y-117783571D01*
X57094523Y-117878809D01*
G04 #@! TO.C,R27*
X104147857Y-118307380D02*
X104481190Y-117831190D01*
X104719285Y-118307380D02*
X104719285Y-117307380D01*
X104338333Y-117307380D01*
X104243095Y-117355000D01*
X104195476Y-117402619D01*
X104147857Y-117497857D01*
X104147857Y-117640714D01*
X104195476Y-117735952D01*
X104243095Y-117783571D01*
X104338333Y-117831190D01*
X104719285Y-117831190D01*
X103766904Y-117402619D02*
X103719285Y-117355000D01*
X103624047Y-117307380D01*
X103385952Y-117307380D01*
X103290714Y-117355000D01*
X103243095Y-117402619D01*
X103195476Y-117497857D01*
X103195476Y-117593095D01*
X103243095Y-117735952D01*
X103814523Y-118307380D01*
X103195476Y-118307380D01*
X102862142Y-117307380D02*
X102195476Y-117307380D01*
X102624047Y-118307380D01*
G04 #@! TO.C,R21*
X193238380Y-136898142D02*
X192762190Y-136564809D01*
X193238380Y-136326714D02*
X192238380Y-136326714D01*
X192238380Y-136707666D01*
X192286000Y-136802904D01*
X192333619Y-136850523D01*
X192428857Y-136898142D01*
X192571714Y-136898142D01*
X192666952Y-136850523D01*
X192714571Y-136802904D01*
X192762190Y-136707666D01*
X192762190Y-136326714D01*
X192333619Y-137279095D02*
X192286000Y-137326714D01*
X192238380Y-137421952D01*
X192238380Y-137660047D01*
X192286000Y-137755285D01*
X192333619Y-137802904D01*
X192428857Y-137850523D01*
X192524095Y-137850523D01*
X192666952Y-137802904D01*
X193238380Y-137231476D01*
X193238380Y-137850523D01*
X193238380Y-138802904D02*
X193238380Y-138231476D01*
X193238380Y-138517190D02*
X192238380Y-138517190D01*
X192381238Y-138421952D01*
X192476476Y-138326714D01*
X192524095Y-138231476D01*
G04 #@! TO.C,R22*
X201493380Y-136898142D02*
X201017190Y-136564809D01*
X201493380Y-136326714D02*
X200493380Y-136326714D01*
X200493380Y-136707666D01*
X200541000Y-136802904D01*
X200588619Y-136850523D01*
X200683857Y-136898142D01*
X200826714Y-136898142D01*
X200921952Y-136850523D01*
X200969571Y-136802904D01*
X201017190Y-136707666D01*
X201017190Y-136326714D01*
X200588619Y-137279095D02*
X200541000Y-137326714D01*
X200493380Y-137421952D01*
X200493380Y-137660047D01*
X200541000Y-137755285D01*
X200588619Y-137802904D01*
X200683857Y-137850523D01*
X200779095Y-137850523D01*
X200921952Y-137802904D01*
X201493380Y-137231476D01*
X201493380Y-137850523D01*
X200588619Y-138231476D02*
X200541000Y-138279095D01*
X200493380Y-138374333D01*
X200493380Y-138612428D01*
X200541000Y-138707666D01*
X200588619Y-138755285D01*
X200683857Y-138802904D01*
X200779095Y-138802904D01*
X200921952Y-138755285D01*
X201493380Y-138183857D01*
X201493380Y-138802904D01*
G04 #@! TO.C,R23*
X209748380Y-136898142D02*
X209272190Y-136564809D01*
X209748380Y-136326714D02*
X208748380Y-136326714D01*
X208748380Y-136707666D01*
X208796000Y-136802904D01*
X208843619Y-136850523D01*
X208938857Y-136898142D01*
X209081714Y-136898142D01*
X209176952Y-136850523D01*
X209224571Y-136802904D01*
X209272190Y-136707666D01*
X209272190Y-136326714D01*
X208843619Y-137279095D02*
X208796000Y-137326714D01*
X208748380Y-137421952D01*
X208748380Y-137660047D01*
X208796000Y-137755285D01*
X208843619Y-137802904D01*
X208938857Y-137850523D01*
X209034095Y-137850523D01*
X209176952Y-137802904D01*
X209748380Y-137231476D01*
X209748380Y-137850523D01*
X208748380Y-138183857D02*
X208748380Y-138802904D01*
X209129333Y-138469571D01*
X209129333Y-138612428D01*
X209176952Y-138707666D01*
X209224571Y-138755285D01*
X209319809Y-138802904D01*
X209557904Y-138802904D01*
X209653142Y-138755285D01*
X209700761Y-138707666D01*
X209748380Y-138612428D01*
X209748380Y-138326714D01*
X209700761Y-138231476D01*
X209653142Y-138183857D01*
G04 #@! TO.C,R17*
X110942380Y-134612142D02*
X110466190Y-134278809D01*
X110942380Y-134040714D02*
X109942380Y-134040714D01*
X109942380Y-134421666D01*
X109990000Y-134516904D01*
X110037619Y-134564523D01*
X110132857Y-134612142D01*
X110275714Y-134612142D01*
X110370952Y-134564523D01*
X110418571Y-134516904D01*
X110466190Y-134421666D01*
X110466190Y-134040714D01*
X110942380Y-135564523D02*
X110942380Y-134993095D01*
X110942380Y-135278809D02*
X109942380Y-135278809D01*
X110085238Y-135183571D01*
X110180476Y-135088333D01*
X110228095Y-134993095D01*
X109942380Y-135897857D02*
X109942380Y-136564523D01*
X110942380Y-136135952D01*
G04 #@! TO.C,R19*
X65222380Y-134612142D02*
X64746190Y-134278809D01*
X65222380Y-134040714D02*
X64222380Y-134040714D01*
X64222380Y-134421666D01*
X64270000Y-134516904D01*
X64317619Y-134564523D01*
X64412857Y-134612142D01*
X64555714Y-134612142D01*
X64650952Y-134564523D01*
X64698571Y-134516904D01*
X64746190Y-134421666D01*
X64746190Y-134040714D01*
X65222380Y-135564523D02*
X65222380Y-134993095D01*
X65222380Y-135278809D02*
X64222380Y-135278809D01*
X64365238Y-135183571D01*
X64460476Y-135088333D01*
X64508095Y-134993095D01*
X65222380Y-136040714D02*
X65222380Y-136231190D01*
X65174761Y-136326428D01*
X65127142Y-136374047D01*
X64984285Y-136469285D01*
X64793809Y-136516904D01*
X64412857Y-136516904D01*
X64317619Y-136469285D01*
X64270000Y-136421666D01*
X64222380Y-136326428D01*
X64222380Y-136135952D01*
X64270000Y-136040714D01*
X64317619Y-135993095D01*
X64412857Y-135945476D01*
X64650952Y-135945476D01*
X64746190Y-135993095D01*
X64793809Y-136040714D01*
X64841428Y-136135952D01*
X64841428Y-136326428D01*
X64793809Y-136421666D01*
X64746190Y-136469285D01*
X64650952Y-136516904D01*
G04 #@! TO.C,R20*
X42362380Y-134612142D02*
X41886190Y-134278809D01*
X42362380Y-134040714D02*
X41362380Y-134040714D01*
X41362380Y-134421666D01*
X41410000Y-134516904D01*
X41457619Y-134564523D01*
X41552857Y-134612142D01*
X41695714Y-134612142D01*
X41790952Y-134564523D01*
X41838571Y-134516904D01*
X41886190Y-134421666D01*
X41886190Y-134040714D01*
X41457619Y-134993095D02*
X41410000Y-135040714D01*
X41362380Y-135135952D01*
X41362380Y-135374047D01*
X41410000Y-135469285D01*
X41457619Y-135516904D01*
X41552857Y-135564523D01*
X41648095Y-135564523D01*
X41790952Y-135516904D01*
X42362380Y-134945476D01*
X42362380Y-135564523D01*
X41362380Y-136183571D02*
X41362380Y-136278809D01*
X41410000Y-136374047D01*
X41457619Y-136421666D01*
X41552857Y-136469285D01*
X41743333Y-136516904D01*
X41981428Y-136516904D01*
X42171904Y-136469285D01*
X42267142Y-136421666D01*
X42314761Y-136374047D01*
X42362380Y-136278809D01*
X42362380Y-136183571D01*
X42314761Y-136088333D01*
X42267142Y-136040714D01*
X42171904Y-135993095D01*
X41981428Y-135945476D01*
X41743333Y-135945476D01*
X41552857Y-135993095D01*
X41457619Y-136040714D01*
X41410000Y-136088333D01*
X41362380Y-136183571D01*
G04 #@! TO.C,R18*
X88082380Y-134612142D02*
X87606190Y-134278809D01*
X88082380Y-134040714D02*
X87082380Y-134040714D01*
X87082380Y-134421666D01*
X87130000Y-134516904D01*
X87177619Y-134564523D01*
X87272857Y-134612142D01*
X87415714Y-134612142D01*
X87510952Y-134564523D01*
X87558571Y-134516904D01*
X87606190Y-134421666D01*
X87606190Y-134040714D01*
X88082380Y-135564523D02*
X88082380Y-134993095D01*
X88082380Y-135278809D02*
X87082380Y-135278809D01*
X87225238Y-135183571D01*
X87320476Y-135088333D01*
X87368095Y-134993095D01*
X87510952Y-136135952D02*
X87463333Y-136040714D01*
X87415714Y-135993095D01*
X87320476Y-135945476D01*
X87272857Y-135945476D01*
X87177619Y-135993095D01*
X87130000Y-136040714D01*
X87082380Y-136135952D01*
X87082380Y-136326428D01*
X87130000Y-136421666D01*
X87177619Y-136469285D01*
X87272857Y-136516904D01*
X87320476Y-136516904D01*
X87415714Y-136469285D01*
X87463333Y-136421666D01*
X87510952Y-136326428D01*
X87510952Y-136135952D01*
X87558571Y-136040714D01*
X87606190Y-135993095D01*
X87701428Y-135945476D01*
X87891904Y-135945476D01*
X87987142Y-135993095D01*
X88034761Y-136040714D01*
X88082380Y-136135952D01*
X88082380Y-136326428D01*
X88034761Y-136421666D01*
X87987142Y-136469285D01*
X87891904Y-136516904D01*
X87701428Y-136516904D01*
X87606190Y-136469285D01*
X87558571Y-136421666D01*
X87510952Y-136326428D01*
G04 #@! TO.C,R6*
X65222380Y-131913333D02*
X64746190Y-131580000D01*
X65222380Y-131341904D02*
X64222380Y-131341904D01*
X64222380Y-131722857D01*
X64270000Y-131818095D01*
X64317619Y-131865714D01*
X64412857Y-131913333D01*
X64555714Y-131913333D01*
X64650952Y-131865714D01*
X64698571Y-131818095D01*
X64746190Y-131722857D01*
X64746190Y-131341904D01*
X64222380Y-132770476D02*
X64222380Y-132580000D01*
X64270000Y-132484761D01*
X64317619Y-132437142D01*
X64460476Y-132341904D01*
X64650952Y-132294285D01*
X65031904Y-132294285D01*
X65127142Y-132341904D01*
X65174761Y-132389523D01*
X65222380Y-132484761D01*
X65222380Y-132675238D01*
X65174761Y-132770476D01*
X65127142Y-132818095D01*
X65031904Y-132865714D01*
X64793809Y-132865714D01*
X64698571Y-132818095D01*
X64650952Y-132770476D01*
X64603333Y-132675238D01*
X64603333Y-132484761D01*
X64650952Y-132389523D01*
X64698571Y-132341904D01*
X64793809Y-132294285D01*
G04 #@! TO.C,R4*
X88082380Y-131913333D02*
X87606190Y-131580000D01*
X88082380Y-131341904D02*
X87082380Y-131341904D01*
X87082380Y-131722857D01*
X87130000Y-131818095D01*
X87177619Y-131865714D01*
X87272857Y-131913333D01*
X87415714Y-131913333D01*
X87510952Y-131865714D01*
X87558571Y-131818095D01*
X87606190Y-131722857D01*
X87606190Y-131341904D01*
X87415714Y-132770476D02*
X88082380Y-132770476D01*
X87034761Y-132532380D02*
X87749047Y-132294285D01*
X87749047Y-132913333D01*
G04 #@! TO.C,R2*
X110942380Y-131913333D02*
X110466190Y-131580000D01*
X110942380Y-131341904D02*
X109942380Y-131341904D01*
X109942380Y-131722857D01*
X109990000Y-131818095D01*
X110037619Y-131865714D01*
X110132857Y-131913333D01*
X110275714Y-131913333D01*
X110370952Y-131865714D01*
X110418571Y-131818095D01*
X110466190Y-131722857D01*
X110466190Y-131341904D01*
X110037619Y-132294285D02*
X109990000Y-132341904D01*
X109942380Y-132437142D01*
X109942380Y-132675238D01*
X109990000Y-132770476D01*
X110037619Y-132818095D01*
X110132857Y-132865714D01*
X110228095Y-132865714D01*
X110370952Y-132818095D01*
X110942380Y-132246666D01*
X110942380Y-132865714D01*
G04 #@! TO.C,R7*
X42362380Y-131913333D02*
X41886190Y-131580000D01*
X42362380Y-131341904D02*
X41362380Y-131341904D01*
X41362380Y-131722857D01*
X41410000Y-131818095D01*
X41457619Y-131865714D01*
X41552857Y-131913333D01*
X41695714Y-131913333D01*
X41790952Y-131865714D01*
X41838571Y-131818095D01*
X41886190Y-131722857D01*
X41886190Y-131341904D01*
X41362380Y-132246666D02*
X41362380Y-132913333D01*
X42362380Y-132484761D01*
G04 #@! TO.C,R5*
X212923380Y-135342333D02*
X212447190Y-135009000D01*
X212923380Y-134770904D02*
X211923380Y-134770904D01*
X211923380Y-135151857D01*
X211971000Y-135247095D01*
X212018619Y-135294714D01*
X212113857Y-135342333D01*
X212256714Y-135342333D01*
X212351952Y-135294714D01*
X212399571Y-135247095D01*
X212447190Y-135151857D01*
X212447190Y-134770904D01*
X211923380Y-136247095D02*
X211923380Y-135770904D01*
X212399571Y-135723285D01*
X212351952Y-135770904D01*
X212304333Y-135866142D01*
X212304333Y-136104238D01*
X212351952Y-136199476D01*
X212399571Y-136247095D01*
X212494809Y-136294714D01*
X212732904Y-136294714D01*
X212828142Y-136247095D01*
X212875761Y-136199476D01*
X212923380Y-136104238D01*
X212923380Y-135866142D01*
X212875761Y-135770904D01*
X212828142Y-135723285D01*
G04 #@! TO.C,R3*
X204668380Y-135342333D02*
X204192190Y-135009000D01*
X204668380Y-134770904D02*
X203668380Y-134770904D01*
X203668380Y-135151857D01*
X203716000Y-135247095D01*
X203763619Y-135294714D01*
X203858857Y-135342333D01*
X204001714Y-135342333D01*
X204096952Y-135294714D01*
X204144571Y-135247095D01*
X204192190Y-135151857D01*
X204192190Y-134770904D01*
X203668380Y-135675666D02*
X203668380Y-136294714D01*
X204049333Y-135961380D01*
X204049333Y-136104238D01*
X204096952Y-136199476D01*
X204144571Y-136247095D01*
X204239809Y-136294714D01*
X204477904Y-136294714D01*
X204573142Y-136247095D01*
X204620761Y-136199476D01*
X204668380Y-136104238D01*
X204668380Y-135818523D01*
X204620761Y-135723285D01*
X204573142Y-135675666D01*
G04 #@! TO.C,C11*
X131929142Y-128262142D02*
X131976761Y-128214523D01*
X132024380Y-128071666D01*
X132024380Y-127976428D01*
X131976761Y-127833571D01*
X131881523Y-127738333D01*
X131786285Y-127690714D01*
X131595809Y-127643095D01*
X131452952Y-127643095D01*
X131262476Y-127690714D01*
X131167238Y-127738333D01*
X131072000Y-127833571D01*
X131024380Y-127976428D01*
X131024380Y-128071666D01*
X131072000Y-128214523D01*
X131119619Y-128262142D01*
X132024380Y-129214523D02*
X132024380Y-128643095D01*
X132024380Y-128928809D02*
X131024380Y-128928809D01*
X131167238Y-128833571D01*
X131262476Y-128738333D01*
X131310095Y-128643095D01*
X132024380Y-130166904D02*
X132024380Y-129595476D01*
X132024380Y-129881190D02*
X131024380Y-129881190D01*
X131167238Y-129785952D01*
X131262476Y-129690714D01*
X131310095Y-129595476D01*
G04 #@! TO.C,C9*
X161774142Y-128738333D02*
X161821761Y-128690714D01*
X161869380Y-128547857D01*
X161869380Y-128452619D01*
X161821761Y-128309761D01*
X161726523Y-128214523D01*
X161631285Y-128166904D01*
X161440809Y-128119285D01*
X161297952Y-128119285D01*
X161107476Y-128166904D01*
X161012238Y-128214523D01*
X160917000Y-128309761D01*
X160869380Y-128452619D01*
X160869380Y-128547857D01*
X160917000Y-128690714D01*
X160964619Y-128738333D01*
X161869380Y-129214523D02*
X161869380Y-129405000D01*
X161821761Y-129500238D01*
X161774142Y-129547857D01*
X161631285Y-129643095D01*
X161440809Y-129690714D01*
X161059857Y-129690714D01*
X160964619Y-129643095D01*
X160917000Y-129595476D01*
X160869380Y-129500238D01*
X160869380Y-129309761D01*
X160917000Y-129214523D01*
X160964619Y-129166904D01*
X161059857Y-129119285D01*
X161297952Y-129119285D01*
X161393190Y-129166904D01*
X161440809Y-129214523D01*
X161488428Y-129309761D01*
X161488428Y-129500238D01*
X161440809Y-129595476D01*
X161393190Y-129643095D01*
X161297952Y-129690714D01*
G04 #@! TO.C,C10*
X135358142Y-120642142D02*
X135405761Y-120594523D01*
X135453380Y-120451666D01*
X135453380Y-120356428D01*
X135405761Y-120213571D01*
X135310523Y-120118333D01*
X135215285Y-120070714D01*
X135024809Y-120023095D01*
X134881952Y-120023095D01*
X134691476Y-120070714D01*
X134596238Y-120118333D01*
X134501000Y-120213571D01*
X134453380Y-120356428D01*
X134453380Y-120451666D01*
X134501000Y-120594523D01*
X134548619Y-120642142D01*
X135453380Y-121594523D02*
X135453380Y-121023095D01*
X135453380Y-121308809D02*
X134453380Y-121308809D01*
X134596238Y-121213571D01*
X134691476Y-121118333D01*
X134739095Y-121023095D01*
X134453380Y-122213571D02*
X134453380Y-122308809D01*
X134501000Y-122404047D01*
X134548619Y-122451666D01*
X134643857Y-122499285D01*
X134834333Y-122546904D01*
X135072428Y-122546904D01*
X135262904Y-122499285D01*
X135358142Y-122451666D01*
X135405761Y-122404047D01*
X135453380Y-122308809D01*
X135453380Y-122213571D01*
X135405761Y-122118333D01*
X135358142Y-122070714D01*
X135262904Y-122023095D01*
X135072428Y-121975476D01*
X134834333Y-121975476D01*
X134643857Y-122023095D01*
X134548619Y-122070714D01*
X134501000Y-122118333D01*
X134453380Y-122213571D01*
G04 #@! TO.C,C8*
X165076142Y-121118333D02*
X165123761Y-121070714D01*
X165171380Y-120927857D01*
X165171380Y-120832619D01*
X165123761Y-120689761D01*
X165028523Y-120594523D01*
X164933285Y-120546904D01*
X164742809Y-120499285D01*
X164599952Y-120499285D01*
X164409476Y-120546904D01*
X164314238Y-120594523D01*
X164219000Y-120689761D01*
X164171380Y-120832619D01*
X164171380Y-120927857D01*
X164219000Y-121070714D01*
X164266619Y-121118333D01*
X164599952Y-121689761D02*
X164552333Y-121594523D01*
X164504714Y-121546904D01*
X164409476Y-121499285D01*
X164361857Y-121499285D01*
X164266619Y-121546904D01*
X164219000Y-121594523D01*
X164171380Y-121689761D01*
X164171380Y-121880238D01*
X164219000Y-121975476D01*
X164266619Y-122023095D01*
X164361857Y-122070714D01*
X164409476Y-122070714D01*
X164504714Y-122023095D01*
X164552333Y-121975476D01*
X164599952Y-121880238D01*
X164599952Y-121689761D01*
X164647571Y-121594523D01*
X164695190Y-121546904D01*
X164790428Y-121499285D01*
X164980904Y-121499285D01*
X165076142Y-121546904D01*
X165123761Y-121594523D01*
X165171380Y-121689761D01*
X165171380Y-121880238D01*
X165123761Y-121975476D01*
X165076142Y-122023095D01*
X164980904Y-122070714D01*
X164790428Y-122070714D01*
X164695190Y-122023095D01*
X164647571Y-121975476D01*
X164599952Y-121880238D01*
G04 #@! TO.C,R1*
X196413380Y-135342333D02*
X195937190Y-135009000D01*
X196413380Y-134770904D02*
X195413380Y-134770904D01*
X195413380Y-135151857D01*
X195461000Y-135247095D01*
X195508619Y-135294714D01*
X195603857Y-135342333D01*
X195746714Y-135342333D01*
X195841952Y-135294714D01*
X195889571Y-135247095D01*
X195937190Y-135151857D01*
X195937190Y-134770904D01*
X196413380Y-136294714D02*
X196413380Y-135723285D01*
X196413380Y-136009000D02*
X195413380Y-136009000D01*
X195556238Y-135913761D01*
X195651476Y-135818523D01*
X195699095Y-135723285D01*
G04 #@! TD*
%LPC*%
D12*
G04 #@! TO.C,R24*
G36*
X36421071Y-115306623D02*
X36453781Y-115311475D01*
X36485857Y-115319509D01*
X36516991Y-115330649D01*
X36546884Y-115344787D01*
X36575247Y-115361787D01*
X36601807Y-115381485D01*
X36626308Y-115403692D01*
X36648515Y-115428193D01*
X36668213Y-115454753D01*
X36685213Y-115483116D01*
X36699351Y-115513009D01*
X36710491Y-115544143D01*
X36718525Y-115576219D01*
X36723377Y-115608929D01*
X36725000Y-115641956D01*
X36725000Y-116768044D01*
X36723377Y-116801071D01*
X36718525Y-116833781D01*
X36710491Y-116865857D01*
X36699351Y-116896991D01*
X36685213Y-116926884D01*
X36668213Y-116955247D01*
X36648515Y-116981807D01*
X36626308Y-117006308D01*
X36601807Y-117028515D01*
X36575247Y-117048213D01*
X36546884Y-117065213D01*
X36516991Y-117079351D01*
X36485857Y-117090491D01*
X36453781Y-117098525D01*
X36421071Y-117103377D01*
X36388044Y-117105000D01*
X35511956Y-117105000D01*
X35478929Y-117103377D01*
X35446219Y-117098525D01*
X35414143Y-117090491D01*
X35383009Y-117079351D01*
X35353116Y-117065213D01*
X35324753Y-117048213D01*
X35298193Y-117028515D01*
X35273692Y-117006308D01*
X35251485Y-116981807D01*
X35231787Y-116955247D01*
X35214787Y-116926884D01*
X35200649Y-116896991D01*
X35189509Y-116865857D01*
X35181475Y-116833781D01*
X35176623Y-116801071D01*
X35175000Y-116768044D01*
X35175000Y-115641956D01*
X35176623Y-115608929D01*
X35181475Y-115576219D01*
X35189509Y-115544143D01*
X35200649Y-115513009D01*
X35214787Y-115483116D01*
X35231787Y-115454753D01*
X35251485Y-115428193D01*
X35273692Y-115403692D01*
X35298193Y-115381485D01*
X35324753Y-115361787D01*
X35353116Y-115344787D01*
X35383009Y-115330649D01*
X35414143Y-115319509D01*
X35446219Y-115311475D01*
X35478929Y-115306623D01*
X35511956Y-115305000D01*
X36388044Y-115305000D01*
X36421071Y-115306623D01*
X36421071Y-115306623D01*
G37*
D13*
X35950000Y-116205000D03*
D12*
G36*
X34371071Y-115306623D02*
X34403781Y-115311475D01*
X34435857Y-115319509D01*
X34466991Y-115330649D01*
X34496884Y-115344787D01*
X34525247Y-115361787D01*
X34551807Y-115381485D01*
X34576308Y-115403692D01*
X34598515Y-115428193D01*
X34618213Y-115454753D01*
X34635213Y-115483116D01*
X34649351Y-115513009D01*
X34660491Y-115544143D01*
X34668525Y-115576219D01*
X34673377Y-115608929D01*
X34675000Y-115641956D01*
X34675000Y-116768044D01*
X34673377Y-116801071D01*
X34668525Y-116833781D01*
X34660491Y-116865857D01*
X34649351Y-116896991D01*
X34635213Y-116926884D01*
X34618213Y-116955247D01*
X34598515Y-116981807D01*
X34576308Y-117006308D01*
X34551807Y-117028515D01*
X34525247Y-117048213D01*
X34496884Y-117065213D01*
X34466991Y-117079351D01*
X34435857Y-117090491D01*
X34403781Y-117098525D01*
X34371071Y-117103377D01*
X34338044Y-117105000D01*
X33461956Y-117105000D01*
X33428929Y-117103377D01*
X33396219Y-117098525D01*
X33364143Y-117090491D01*
X33333009Y-117079351D01*
X33303116Y-117065213D01*
X33274753Y-117048213D01*
X33248193Y-117028515D01*
X33223692Y-117006308D01*
X33201485Y-116981807D01*
X33181787Y-116955247D01*
X33164787Y-116926884D01*
X33150649Y-116896991D01*
X33139509Y-116865857D01*
X33131475Y-116833781D01*
X33126623Y-116801071D01*
X33125000Y-116768044D01*
X33125000Y-115641956D01*
X33126623Y-115608929D01*
X33131475Y-115576219D01*
X33139509Y-115544143D01*
X33150649Y-115513009D01*
X33164787Y-115483116D01*
X33181787Y-115454753D01*
X33201485Y-115428193D01*
X33223692Y-115403692D01*
X33248193Y-115381485D01*
X33274753Y-115361787D01*
X33303116Y-115344787D01*
X33333009Y-115330649D01*
X33364143Y-115319509D01*
X33396219Y-115311475D01*
X33428929Y-115306623D01*
X33461956Y-115305000D01*
X34338044Y-115305000D01*
X34371071Y-115306623D01*
X34371071Y-115306623D01*
G37*
D13*
X33900000Y-116205000D03*
G04 #@! TD*
D12*
G04 #@! TO.C,R25*
G36*
X80091071Y-115306623D02*
X80123781Y-115311475D01*
X80155857Y-115319509D01*
X80186991Y-115330649D01*
X80216884Y-115344787D01*
X80245247Y-115361787D01*
X80271807Y-115381485D01*
X80296308Y-115403692D01*
X80318515Y-115428193D01*
X80338213Y-115454753D01*
X80355213Y-115483116D01*
X80369351Y-115513009D01*
X80380491Y-115544143D01*
X80388525Y-115576219D01*
X80393377Y-115608929D01*
X80395000Y-115641956D01*
X80395000Y-116768044D01*
X80393377Y-116801071D01*
X80388525Y-116833781D01*
X80380491Y-116865857D01*
X80369351Y-116896991D01*
X80355213Y-116926884D01*
X80338213Y-116955247D01*
X80318515Y-116981807D01*
X80296308Y-117006308D01*
X80271807Y-117028515D01*
X80245247Y-117048213D01*
X80216884Y-117065213D01*
X80186991Y-117079351D01*
X80155857Y-117090491D01*
X80123781Y-117098525D01*
X80091071Y-117103377D01*
X80058044Y-117105000D01*
X79181956Y-117105000D01*
X79148929Y-117103377D01*
X79116219Y-117098525D01*
X79084143Y-117090491D01*
X79053009Y-117079351D01*
X79023116Y-117065213D01*
X78994753Y-117048213D01*
X78968193Y-117028515D01*
X78943692Y-117006308D01*
X78921485Y-116981807D01*
X78901787Y-116955247D01*
X78884787Y-116926884D01*
X78870649Y-116896991D01*
X78859509Y-116865857D01*
X78851475Y-116833781D01*
X78846623Y-116801071D01*
X78845000Y-116768044D01*
X78845000Y-115641956D01*
X78846623Y-115608929D01*
X78851475Y-115576219D01*
X78859509Y-115544143D01*
X78870649Y-115513009D01*
X78884787Y-115483116D01*
X78901787Y-115454753D01*
X78921485Y-115428193D01*
X78943692Y-115403692D01*
X78968193Y-115381485D01*
X78994753Y-115361787D01*
X79023116Y-115344787D01*
X79053009Y-115330649D01*
X79084143Y-115319509D01*
X79116219Y-115311475D01*
X79148929Y-115306623D01*
X79181956Y-115305000D01*
X80058044Y-115305000D01*
X80091071Y-115306623D01*
X80091071Y-115306623D01*
G37*
D13*
X79620000Y-116205000D03*
D12*
G36*
X82141071Y-115306623D02*
X82173781Y-115311475D01*
X82205857Y-115319509D01*
X82236991Y-115330649D01*
X82266884Y-115344787D01*
X82295247Y-115361787D01*
X82321807Y-115381485D01*
X82346308Y-115403692D01*
X82368515Y-115428193D01*
X82388213Y-115454753D01*
X82405213Y-115483116D01*
X82419351Y-115513009D01*
X82430491Y-115544143D01*
X82438525Y-115576219D01*
X82443377Y-115608929D01*
X82445000Y-115641956D01*
X82445000Y-116768044D01*
X82443377Y-116801071D01*
X82438525Y-116833781D01*
X82430491Y-116865857D01*
X82419351Y-116896991D01*
X82405213Y-116926884D01*
X82388213Y-116955247D01*
X82368515Y-116981807D01*
X82346308Y-117006308D01*
X82321807Y-117028515D01*
X82295247Y-117048213D01*
X82266884Y-117065213D01*
X82236991Y-117079351D01*
X82205857Y-117090491D01*
X82173781Y-117098525D01*
X82141071Y-117103377D01*
X82108044Y-117105000D01*
X81231956Y-117105000D01*
X81198929Y-117103377D01*
X81166219Y-117098525D01*
X81134143Y-117090491D01*
X81103009Y-117079351D01*
X81073116Y-117065213D01*
X81044753Y-117048213D01*
X81018193Y-117028515D01*
X80993692Y-117006308D01*
X80971485Y-116981807D01*
X80951787Y-116955247D01*
X80934787Y-116926884D01*
X80920649Y-116896991D01*
X80909509Y-116865857D01*
X80901475Y-116833781D01*
X80896623Y-116801071D01*
X80895000Y-116768044D01*
X80895000Y-115641956D01*
X80896623Y-115608929D01*
X80901475Y-115576219D01*
X80909509Y-115544143D01*
X80920649Y-115513009D01*
X80934787Y-115483116D01*
X80951787Y-115454753D01*
X80971485Y-115428193D01*
X80993692Y-115403692D01*
X81018193Y-115381485D01*
X81044753Y-115361787D01*
X81073116Y-115344787D01*
X81103009Y-115330649D01*
X81134143Y-115319509D01*
X81166219Y-115311475D01*
X81198929Y-115306623D01*
X81231956Y-115305000D01*
X82108044Y-115305000D01*
X82141071Y-115306623D01*
X82141071Y-115306623D01*
G37*
D13*
X81670000Y-116205000D03*
G04 #@! TD*
D12*
G04 #@! TO.C,R26*
G36*
X59281071Y-115306623D02*
X59313781Y-115311475D01*
X59345857Y-115319509D01*
X59376991Y-115330649D01*
X59406884Y-115344787D01*
X59435247Y-115361787D01*
X59461807Y-115381485D01*
X59486308Y-115403692D01*
X59508515Y-115428193D01*
X59528213Y-115454753D01*
X59545213Y-115483116D01*
X59559351Y-115513009D01*
X59570491Y-115544143D01*
X59578525Y-115576219D01*
X59583377Y-115608929D01*
X59585000Y-115641956D01*
X59585000Y-116768044D01*
X59583377Y-116801071D01*
X59578525Y-116833781D01*
X59570491Y-116865857D01*
X59559351Y-116896991D01*
X59545213Y-116926884D01*
X59528213Y-116955247D01*
X59508515Y-116981807D01*
X59486308Y-117006308D01*
X59461807Y-117028515D01*
X59435247Y-117048213D01*
X59406884Y-117065213D01*
X59376991Y-117079351D01*
X59345857Y-117090491D01*
X59313781Y-117098525D01*
X59281071Y-117103377D01*
X59248044Y-117105000D01*
X58371956Y-117105000D01*
X58338929Y-117103377D01*
X58306219Y-117098525D01*
X58274143Y-117090491D01*
X58243009Y-117079351D01*
X58213116Y-117065213D01*
X58184753Y-117048213D01*
X58158193Y-117028515D01*
X58133692Y-117006308D01*
X58111485Y-116981807D01*
X58091787Y-116955247D01*
X58074787Y-116926884D01*
X58060649Y-116896991D01*
X58049509Y-116865857D01*
X58041475Y-116833781D01*
X58036623Y-116801071D01*
X58035000Y-116768044D01*
X58035000Y-115641956D01*
X58036623Y-115608929D01*
X58041475Y-115576219D01*
X58049509Y-115544143D01*
X58060649Y-115513009D01*
X58074787Y-115483116D01*
X58091787Y-115454753D01*
X58111485Y-115428193D01*
X58133692Y-115403692D01*
X58158193Y-115381485D01*
X58184753Y-115361787D01*
X58213116Y-115344787D01*
X58243009Y-115330649D01*
X58274143Y-115319509D01*
X58306219Y-115311475D01*
X58338929Y-115306623D01*
X58371956Y-115305000D01*
X59248044Y-115305000D01*
X59281071Y-115306623D01*
X59281071Y-115306623D01*
G37*
D13*
X58810000Y-116205000D03*
D12*
G36*
X57231071Y-115306623D02*
X57263781Y-115311475D01*
X57295857Y-115319509D01*
X57326991Y-115330649D01*
X57356884Y-115344787D01*
X57385247Y-115361787D01*
X57411807Y-115381485D01*
X57436308Y-115403692D01*
X57458515Y-115428193D01*
X57478213Y-115454753D01*
X57495213Y-115483116D01*
X57509351Y-115513009D01*
X57520491Y-115544143D01*
X57528525Y-115576219D01*
X57533377Y-115608929D01*
X57535000Y-115641956D01*
X57535000Y-116768044D01*
X57533377Y-116801071D01*
X57528525Y-116833781D01*
X57520491Y-116865857D01*
X57509351Y-116896991D01*
X57495213Y-116926884D01*
X57478213Y-116955247D01*
X57458515Y-116981807D01*
X57436308Y-117006308D01*
X57411807Y-117028515D01*
X57385247Y-117048213D01*
X57356884Y-117065213D01*
X57326991Y-117079351D01*
X57295857Y-117090491D01*
X57263781Y-117098525D01*
X57231071Y-117103377D01*
X57198044Y-117105000D01*
X56321956Y-117105000D01*
X56288929Y-117103377D01*
X56256219Y-117098525D01*
X56224143Y-117090491D01*
X56193009Y-117079351D01*
X56163116Y-117065213D01*
X56134753Y-117048213D01*
X56108193Y-117028515D01*
X56083692Y-117006308D01*
X56061485Y-116981807D01*
X56041787Y-116955247D01*
X56024787Y-116926884D01*
X56010649Y-116896991D01*
X55999509Y-116865857D01*
X55991475Y-116833781D01*
X55986623Y-116801071D01*
X55985000Y-116768044D01*
X55985000Y-115641956D01*
X55986623Y-115608929D01*
X55991475Y-115576219D01*
X55999509Y-115544143D01*
X56010649Y-115513009D01*
X56024787Y-115483116D01*
X56041787Y-115454753D01*
X56061485Y-115428193D01*
X56083692Y-115403692D01*
X56108193Y-115381485D01*
X56134753Y-115361787D01*
X56163116Y-115344787D01*
X56193009Y-115330649D01*
X56224143Y-115319509D01*
X56256219Y-115311475D01*
X56288929Y-115306623D01*
X56321956Y-115305000D01*
X57198044Y-115305000D01*
X57231071Y-115306623D01*
X57231071Y-115306623D01*
G37*
D13*
X56760000Y-116205000D03*
G04 #@! TD*
D12*
G04 #@! TO.C,R27*
G36*
X102951071Y-115306623D02*
X102983781Y-115311475D01*
X103015857Y-115319509D01*
X103046991Y-115330649D01*
X103076884Y-115344787D01*
X103105247Y-115361787D01*
X103131807Y-115381485D01*
X103156308Y-115403692D01*
X103178515Y-115428193D01*
X103198213Y-115454753D01*
X103215213Y-115483116D01*
X103229351Y-115513009D01*
X103240491Y-115544143D01*
X103248525Y-115576219D01*
X103253377Y-115608929D01*
X103255000Y-115641956D01*
X103255000Y-116768044D01*
X103253377Y-116801071D01*
X103248525Y-116833781D01*
X103240491Y-116865857D01*
X103229351Y-116896991D01*
X103215213Y-116926884D01*
X103198213Y-116955247D01*
X103178515Y-116981807D01*
X103156308Y-117006308D01*
X103131807Y-117028515D01*
X103105247Y-117048213D01*
X103076884Y-117065213D01*
X103046991Y-117079351D01*
X103015857Y-117090491D01*
X102983781Y-117098525D01*
X102951071Y-117103377D01*
X102918044Y-117105000D01*
X102041956Y-117105000D01*
X102008929Y-117103377D01*
X101976219Y-117098525D01*
X101944143Y-117090491D01*
X101913009Y-117079351D01*
X101883116Y-117065213D01*
X101854753Y-117048213D01*
X101828193Y-117028515D01*
X101803692Y-117006308D01*
X101781485Y-116981807D01*
X101761787Y-116955247D01*
X101744787Y-116926884D01*
X101730649Y-116896991D01*
X101719509Y-116865857D01*
X101711475Y-116833781D01*
X101706623Y-116801071D01*
X101705000Y-116768044D01*
X101705000Y-115641956D01*
X101706623Y-115608929D01*
X101711475Y-115576219D01*
X101719509Y-115544143D01*
X101730649Y-115513009D01*
X101744787Y-115483116D01*
X101761787Y-115454753D01*
X101781485Y-115428193D01*
X101803692Y-115403692D01*
X101828193Y-115381485D01*
X101854753Y-115361787D01*
X101883116Y-115344787D01*
X101913009Y-115330649D01*
X101944143Y-115319509D01*
X101976219Y-115311475D01*
X102008929Y-115306623D01*
X102041956Y-115305000D01*
X102918044Y-115305000D01*
X102951071Y-115306623D01*
X102951071Y-115306623D01*
G37*
D13*
X102480000Y-116205000D03*
D12*
G36*
X105001071Y-115306623D02*
X105033781Y-115311475D01*
X105065857Y-115319509D01*
X105096991Y-115330649D01*
X105126884Y-115344787D01*
X105155247Y-115361787D01*
X105181807Y-115381485D01*
X105206308Y-115403692D01*
X105228515Y-115428193D01*
X105248213Y-115454753D01*
X105265213Y-115483116D01*
X105279351Y-115513009D01*
X105290491Y-115544143D01*
X105298525Y-115576219D01*
X105303377Y-115608929D01*
X105305000Y-115641956D01*
X105305000Y-116768044D01*
X105303377Y-116801071D01*
X105298525Y-116833781D01*
X105290491Y-116865857D01*
X105279351Y-116896991D01*
X105265213Y-116926884D01*
X105248213Y-116955247D01*
X105228515Y-116981807D01*
X105206308Y-117006308D01*
X105181807Y-117028515D01*
X105155247Y-117048213D01*
X105126884Y-117065213D01*
X105096991Y-117079351D01*
X105065857Y-117090491D01*
X105033781Y-117098525D01*
X105001071Y-117103377D01*
X104968044Y-117105000D01*
X104091956Y-117105000D01*
X104058929Y-117103377D01*
X104026219Y-117098525D01*
X103994143Y-117090491D01*
X103963009Y-117079351D01*
X103933116Y-117065213D01*
X103904753Y-117048213D01*
X103878193Y-117028515D01*
X103853692Y-117006308D01*
X103831485Y-116981807D01*
X103811787Y-116955247D01*
X103794787Y-116926884D01*
X103780649Y-116896991D01*
X103769509Y-116865857D01*
X103761475Y-116833781D01*
X103756623Y-116801071D01*
X103755000Y-116768044D01*
X103755000Y-115641956D01*
X103756623Y-115608929D01*
X103761475Y-115576219D01*
X103769509Y-115544143D01*
X103780649Y-115513009D01*
X103794787Y-115483116D01*
X103811787Y-115454753D01*
X103831485Y-115428193D01*
X103853692Y-115403692D01*
X103878193Y-115381485D01*
X103904753Y-115361787D01*
X103933116Y-115344787D01*
X103963009Y-115330649D01*
X103994143Y-115319509D01*
X104026219Y-115311475D01*
X104058929Y-115306623D01*
X104091956Y-115305000D01*
X104968044Y-115305000D01*
X105001071Y-115306623D01*
X105001071Y-115306623D01*
G37*
D13*
X104530000Y-116205000D03*
G04 #@! TD*
D14*
G04 #@! TO.C,K1*
X222295000Y-39770000D03*
X234545000Y-39720000D03*
X222295000Y-51770000D03*
X234495000Y-51770000D03*
X220345000Y-45720000D03*
X252035000Y-49530000D03*
X246995000Y-42030000D03*
X241955000Y-49530000D03*
X241955000Y-42030000D03*
X252035000Y-42030000D03*
X246995000Y-49530000D03*
X226695000Y-42030000D03*
D15*
X226695000Y-49530000D03*
G04 #@! TD*
D14*
G04 #@! TO.C,K2*
X222295000Y-76600000D03*
X234545000Y-76550000D03*
X222295000Y-88600000D03*
X234495000Y-88600000D03*
X220345000Y-82550000D03*
X252035000Y-86360000D03*
X246995000Y-78860000D03*
X241955000Y-86360000D03*
X241955000Y-78860000D03*
X252035000Y-78860000D03*
X246995000Y-86360000D03*
X226695000Y-78860000D03*
D15*
X226695000Y-86360000D03*
G04 #@! TD*
G04 #@! TO.C,K3*
X226695000Y-67945000D03*
D14*
X226695000Y-60445000D03*
X246995000Y-67945000D03*
X252035000Y-60445000D03*
X241955000Y-60445000D03*
X241955000Y-67945000D03*
X246995000Y-60445000D03*
X252035000Y-67945000D03*
X220345000Y-64135000D03*
X234495000Y-70185000D03*
X222295000Y-70185000D03*
X234545000Y-58135000D03*
X222295000Y-58185000D03*
G04 #@! TD*
D16*
G04 #@! TO.C,J14*
X142875000Y-147320000D03*
D17*
X145415000Y-147320000D03*
X147955000Y-147320000D03*
X150495000Y-147320000D03*
G04 #@! TD*
D18*
G04 #@! TO.C,C12*
X230310000Y-124460000D03*
X257810000Y-124460000D03*
G04 #@! TD*
G04 #@! TO.C,C15*
X79815000Y-92075000D03*
X107315000Y-92075000D03*
G04 #@! TD*
G04 #@! TO.C,C14*
X63695000Y-91440000D03*
X36195000Y-91440000D03*
G04 #@! TD*
G04 #@! TO.C,C13*
X257810000Y-136525000D03*
X230310000Y-136525000D03*
G04 #@! TD*
D19*
G04 #@! TO.C,Q3*
X33655000Y-111125000D03*
D20*
X36195000Y-111125000D03*
X38735000Y-111125000D03*
G04 #@! TD*
G04 #@! TO.C,Q6*
X61595000Y-111125000D03*
X59055000Y-111125000D03*
D19*
X56515000Y-111125000D03*
G04 #@! TD*
D12*
G04 #@! TO.C,J15*
G36*
X266526141Y-125126435D02*
X266555076Y-125130727D01*
X266583451Y-125137835D01*
X266610993Y-125147690D01*
X266637436Y-125160196D01*
X266662526Y-125175235D01*
X266686021Y-125192660D01*
X266707696Y-125212304D01*
X266727340Y-125233979D01*
X266744765Y-125257474D01*
X266759804Y-125282564D01*
X266772310Y-125309007D01*
X266782165Y-125336549D01*
X266789273Y-125364924D01*
X266793565Y-125393859D01*
X266795000Y-125423076D01*
X266795000Y-127306924D01*
X266793565Y-127336141D01*
X266789273Y-127365076D01*
X266782165Y-127393451D01*
X266772310Y-127420993D01*
X266759804Y-127447436D01*
X266744765Y-127472526D01*
X266727340Y-127496021D01*
X266707696Y-127517696D01*
X266686021Y-127537340D01*
X266662526Y-127554765D01*
X266637436Y-127569804D01*
X266610993Y-127582310D01*
X266583451Y-127592165D01*
X266555076Y-127599273D01*
X266526141Y-127603565D01*
X266496924Y-127605000D01*
X263093076Y-127605000D01*
X263063859Y-127603565D01*
X263034924Y-127599273D01*
X263006549Y-127592165D01*
X262979007Y-127582310D01*
X262952564Y-127569804D01*
X262927474Y-127554765D01*
X262903979Y-127537340D01*
X262882304Y-127517696D01*
X262862660Y-127496021D01*
X262845235Y-127472526D01*
X262830196Y-127447436D01*
X262817690Y-127420993D01*
X262807835Y-127393451D01*
X262800727Y-127365076D01*
X262796435Y-127336141D01*
X262795000Y-127306924D01*
X262795000Y-125423076D01*
X262796435Y-125393859D01*
X262800727Y-125364924D01*
X262807835Y-125336549D01*
X262817690Y-125309007D01*
X262830196Y-125282564D01*
X262845235Y-125257474D01*
X262862660Y-125233979D01*
X262882304Y-125212304D01*
X262903979Y-125192660D01*
X262927474Y-125175235D01*
X262952564Y-125160196D01*
X262979007Y-125147690D01*
X263006549Y-125137835D01*
X263034924Y-125130727D01*
X263063859Y-125126435D01*
X263093076Y-125125000D01*
X266496924Y-125125000D01*
X266526141Y-125126435D01*
X266526141Y-125126435D01*
G37*
D21*
X264795000Y-126365000D03*
D22*
X264795000Y-131445000D03*
X264795000Y-136525000D03*
X264795000Y-141605000D03*
G04 #@! TD*
D23*
G04 #@! TO.C,U2*
X163830000Y-114935000D03*
X171450000Y-114935000D03*
X156210000Y-114935000D03*
D24*
X171450000Y-94615000D03*
D25*
X156210000Y-94615000D03*
G04 #@! TD*
D17*
G04 #@! TO.C,JP9*
X92075000Y-111125000D03*
D16*
X94615000Y-111125000D03*
G04 #@! TD*
G04 #@! TO.C,JP8*
X48895000Y-111125000D03*
D17*
X46355000Y-111125000D03*
G04 #@! TD*
D12*
G04 #@! TO.C,R21*
G36*
X194906071Y-135751623D02*
X194938781Y-135756475D01*
X194970857Y-135764509D01*
X195001991Y-135775649D01*
X195031884Y-135789787D01*
X195060247Y-135806787D01*
X195086807Y-135826485D01*
X195111308Y-135848692D01*
X195133515Y-135873193D01*
X195153213Y-135899753D01*
X195170213Y-135928116D01*
X195184351Y-135958009D01*
X195195491Y-135989143D01*
X195203525Y-136021219D01*
X195208377Y-136053929D01*
X195210000Y-136086956D01*
X195210000Y-136963044D01*
X195208377Y-136996071D01*
X195203525Y-137028781D01*
X195195491Y-137060857D01*
X195184351Y-137091991D01*
X195170213Y-137121884D01*
X195153213Y-137150247D01*
X195133515Y-137176807D01*
X195111308Y-137201308D01*
X195086807Y-137223515D01*
X195060247Y-137243213D01*
X195031884Y-137260213D01*
X195001991Y-137274351D01*
X194970857Y-137285491D01*
X194938781Y-137293525D01*
X194906071Y-137298377D01*
X194873044Y-137300000D01*
X193746956Y-137300000D01*
X193713929Y-137298377D01*
X193681219Y-137293525D01*
X193649143Y-137285491D01*
X193618009Y-137274351D01*
X193588116Y-137260213D01*
X193559753Y-137243213D01*
X193533193Y-137223515D01*
X193508692Y-137201308D01*
X193486485Y-137176807D01*
X193466787Y-137150247D01*
X193449787Y-137121884D01*
X193435649Y-137091991D01*
X193424509Y-137060857D01*
X193416475Y-137028781D01*
X193411623Y-136996071D01*
X193410000Y-136963044D01*
X193410000Y-136086956D01*
X193411623Y-136053929D01*
X193416475Y-136021219D01*
X193424509Y-135989143D01*
X193435649Y-135958009D01*
X193449787Y-135928116D01*
X193466787Y-135899753D01*
X193486485Y-135873193D01*
X193508692Y-135848692D01*
X193533193Y-135826485D01*
X193559753Y-135806787D01*
X193588116Y-135789787D01*
X193618009Y-135775649D01*
X193649143Y-135764509D01*
X193681219Y-135756475D01*
X193713929Y-135751623D01*
X193746956Y-135750000D01*
X194873044Y-135750000D01*
X194906071Y-135751623D01*
X194906071Y-135751623D01*
G37*
D13*
X194310000Y-136525000D03*
D12*
G36*
X194906071Y-137801623D02*
X194938781Y-137806475D01*
X194970857Y-137814509D01*
X195001991Y-137825649D01*
X195031884Y-137839787D01*
X195060247Y-137856787D01*
X195086807Y-137876485D01*
X195111308Y-137898692D01*
X195133515Y-137923193D01*
X195153213Y-137949753D01*
X195170213Y-137978116D01*
X195184351Y-138008009D01*
X195195491Y-138039143D01*
X195203525Y-138071219D01*
X195208377Y-138103929D01*
X195210000Y-138136956D01*
X195210000Y-139013044D01*
X195208377Y-139046071D01*
X195203525Y-139078781D01*
X195195491Y-139110857D01*
X195184351Y-139141991D01*
X195170213Y-139171884D01*
X195153213Y-139200247D01*
X195133515Y-139226807D01*
X195111308Y-139251308D01*
X195086807Y-139273515D01*
X195060247Y-139293213D01*
X195031884Y-139310213D01*
X195001991Y-139324351D01*
X194970857Y-139335491D01*
X194938781Y-139343525D01*
X194906071Y-139348377D01*
X194873044Y-139350000D01*
X193746956Y-139350000D01*
X193713929Y-139348377D01*
X193681219Y-139343525D01*
X193649143Y-139335491D01*
X193618009Y-139324351D01*
X193588116Y-139310213D01*
X193559753Y-139293213D01*
X193533193Y-139273515D01*
X193508692Y-139251308D01*
X193486485Y-139226807D01*
X193466787Y-139200247D01*
X193449787Y-139171884D01*
X193435649Y-139141991D01*
X193424509Y-139110857D01*
X193416475Y-139078781D01*
X193411623Y-139046071D01*
X193410000Y-139013044D01*
X193410000Y-138136956D01*
X193411623Y-138103929D01*
X193416475Y-138071219D01*
X193424509Y-138039143D01*
X193435649Y-138008009D01*
X193449787Y-137978116D01*
X193466787Y-137949753D01*
X193486485Y-137923193D01*
X193508692Y-137898692D01*
X193533193Y-137876485D01*
X193559753Y-137856787D01*
X193588116Y-137839787D01*
X193618009Y-137825649D01*
X193649143Y-137814509D01*
X193681219Y-137806475D01*
X193713929Y-137801623D01*
X193746956Y-137800000D01*
X194873044Y-137800000D01*
X194906071Y-137801623D01*
X194906071Y-137801623D01*
G37*
D13*
X194310000Y-138575000D03*
G04 #@! TD*
D12*
G04 #@! TO.C,R22*
G36*
X203161071Y-137801623D02*
X203193781Y-137806475D01*
X203225857Y-137814509D01*
X203256991Y-137825649D01*
X203286884Y-137839787D01*
X203315247Y-137856787D01*
X203341807Y-137876485D01*
X203366308Y-137898692D01*
X203388515Y-137923193D01*
X203408213Y-137949753D01*
X203425213Y-137978116D01*
X203439351Y-138008009D01*
X203450491Y-138039143D01*
X203458525Y-138071219D01*
X203463377Y-138103929D01*
X203465000Y-138136956D01*
X203465000Y-139013044D01*
X203463377Y-139046071D01*
X203458525Y-139078781D01*
X203450491Y-139110857D01*
X203439351Y-139141991D01*
X203425213Y-139171884D01*
X203408213Y-139200247D01*
X203388515Y-139226807D01*
X203366308Y-139251308D01*
X203341807Y-139273515D01*
X203315247Y-139293213D01*
X203286884Y-139310213D01*
X203256991Y-139324351D01*
X203225857Y-139335491D01*
X203193781Y-139343525D01*
X203161071Y-139348377D01*
X203128044Y-139350000D01*
X202001956Y-139350000D01*
X201968929Y-139348377D01*
X201936219Y-139343525D01*
X201904143Y-139335491D01*
X201873009Y-139324351D01*
X201843116Y-139310213D01*
X201814753Y-139293213D01*
X201788193Y-139273515D01*
X201763692Y-139251308D01*
X201741485Y-139226807D01*
X201721787Y-139200247D01*
X201704787Y-139171884D01*
X201690649Y-139141991D01*
X201679509Y-139110857D01*
X201671475Y-139078781D01*
X201666623Y-139046071D01*
X201665000Y-139013044D01*
X201665000Y-138136956D01*
X201666623Y-138103929D01*
X201671475Y-138071219D01*
X201679509Y-138039143D01*
X201690649Y-138008009D01*
X201704787Y-137978116D01*
X201721787Y-137949753D01*
X201741485Y-137923193D01*
X201763692Y-137898692D01*
X201788193Y-137876485D01*
X201814753Y-137856787D01*
X201843116Y-137839787D01*
X201873009Y-137825649D01*
X201904143Y-137814509D01*
X201936219Y-137806475D01*
X201968929Y-137801623D01*
X202001956Y-137800000D01*
X203128044Y-137800000D01*
X203161071Y-137801623D01*
X203161071Y-137801623D01*
G37*
D13*
X202565000Y-138575000D03*
D12*
G36*
X203161071Y-135751623D02*
X203193781Y-135756475D01*
X203225857Y-135764509D01*
X203256991Y-135775649D01*
X203286884Y-135789787D01*
X203315247Y-135806787D01*
X203341807Y-135826485D01*
X203366308Y-135848692D01*
X203388515Y-135873193D01*
X203408213Y-135899753D01*
X203425213Y-135928116D01*
X203439351Y-135958009D01*
X203450491Y-135989143D01*
X203458525Y-136021219D01*
X203463377Y-136053929D01*
X203465000Y-136086956D01*
X203465000Y-136963044D01*
X203463377Y-136996071D01*
X203458525Y-137028781D01*
X203450491Y-137060857D01*
X203439351Y-137091991D01*
X203425213Y-137121884D01*
X203408213Y-137150247D01*
X203388515Y-137176807D01*
X203366308Y-137201308D01*
X203341807Y-137223515D01*
X203315247Y-137243213D01*
X203286884Y-137260213D01*
X203256991Y-137274351D01*
X203225857Y-137285491D01*
X203193781Y-137293525D01*
X203161071Y-137298377D01*
X203128044Y-137300000D01*
X202001956Y-137300000D01*
X201968929Y-137298377D01*
X201936219Y-137293525D01*
X201904143Y-137285491D01*
X201873009Y-137274351D01*
X201843116Y-137260213D01*
X201814753Y-137243213D01*
X201788193Y-137223515D01*
X201763692Y-137201308D01*
X201741485Y-137176807D01*
X201721787Y-137150247D01*
X201704787Y-137121884D01*
X201690649Y-137091991D01*
X201679509Y-137060857D01*
X201671475Y-137028781D01*
X201666623Y-136996071D01*
X201665000Y-136963044D01*
X201665000Y-136086956D01*
X201666623Y-136053929D01*
X201671475Y-136021219D01*
X201679509Y-135989143D01*
X201690649Y-135958009D01*
X201704787Y-135928116D01*
X201721787Y-135899753D01*
X201741485Y-135873193D01*
X201763692Y-135848692D01*
X201788193Y-135826485D01*
X201814753Y-135806787D01*
X201843116Y-135789787D01*
X201873009Y-135775649D01*
X201904143Y-135764509D01*
X201936219Y-135756475D01*
X201968929Y-135751623D01*
X202001956Y-135750000D01*
X203128044Y-135750000D01*
X203161071Y-135751623D01*
X203161071Y-135751623D01*
G37*
D13*
X202565000Y-136525000D03*
G04 #@! TD*
D12*
G04 #@! TO.C,R23*
G36*
X211416071Y-135751623D02*
X211448781Y-135756475D01*
X211480857Y-135764509D01*
X211511991Y-135775649D01*
X211541884Y-135789787D01*
X211570247Y-135806787D01*
X211596807Y-135826485D01*
X211621308Y-135848692D01*
X211643515Y-135873193D01*
X211663213Y-135899753D01*
X211680213Y-135928116D01*
X211694351Y-135958009D01*
X211705491Y-135989143D01*
X211713525Y-136021219D01*
X211718377Y-136053929D01*
X211720000Y-136086956D01*
X211720000Y-136963044D01*
X211718377Y-136996071D01*
X211713525Y-137028781D01*
X211705491Y-137060857D01*
X211694351Y-137091991D01*
X211680213Y-137121884D01*
X211663213Y-137150247D01*
X211643515Y-137176807D01*
X211621308Y-137201308D01*
X211596807Y-137223515D01*
X211570247Y-137243213D01*
X211541884Y-137260213D01*
X211511991Y-137274351D01*
X211480857Y-137285491D01*
X211448781Y-137293525D01*
X211416071Y-137298377D01*
X211383044Y-137300000D01*
X210256956Y-137300000D01*
X210223929Y-137298377D01*
X210191219Y-137293525D01*
X210159143Y-137285491D01*
X210128009Y-137274351D01*
X210098116Y-137260213D01*
X210069753Y-137243213D01*
X210043193Y-137223515D01*
X210018692Y-137201308D01*
X209996485Y-137176807D01*
X209976787Y-137150247D01*
X209959787Y-137121884D01*
X209945649Y-137091991D01*
X209934509Y-137060857D01*
X209926475Y-137028781D01*
X209921623Y-136996071D01*
X209920000Y-136963044D01*
X209920000Y-136086956D01*
X209921623Y-136053929D01*
X209926475Y-136021219D01*
X209934509Y-135989143D01*
X209945649Y-135958009D01*
X209959787Y-135928116D01*
X209976787Y-135899753D01*
X209996485Y-135873193D01*
X210018692Y-135848692D01*
X210043193Y-135826485D01*
X210069753Y-135806787D01*
X210098116Y-135789787D01*
X210128009Y-135775649D01*
X210159143Y-135764509D01*
X210191219Y-135756475D01*
X210223929Y-135751623D01*
X210256956Y-135750000D01*
X211383044Y-135750000D01*
X211416071Y-135751623D01*
X211416071Y-135751623D01*
G37*
D13*
X210820000Y-136525000D03*
D12*
G36*
X211416071Y-137801623D02*
X211448781Y-137806475D01*
X211480857Y-137814509D01*
X211511991Y-137825649D01*
X211541884Y-137839787D01*
X211570247Y-137856787D01*
X211596807Y-137876485D01*
X211621308Y-137898692D01*
X211643515Y-137923193D01*
X211663213Y-137949753D01*
X211680213Y-137978116D01*
X211694351Y-138008009D01*
X211705491Y-138039143D01*
X211713525Y-138071219D01*
X211718377Y-138103929D01*
X211720000Y-138136956D01*
X211720000Y-139013044D01*
X211718377Y-139046071D01*
X211713525Y-139078781D01*
X211705491Y-139110857D01*
X211694351Y-139141991D01*
X211680213Y-139171884D01*
X211663213Y-139200247D01*
X211643515Y-139226807D01*
X211621308Y-139251308D01*
X211596807Y-139273515D01*
X211570247Y-139293213D01*
X211541884Y-139310213D01*
X211511991Y-139324351D01*
X211480857Y-139335491D01*
X211448781Y-139343525D01*
X211416071Y-139348377D01*
X211383044Y-139350000D01*
X210256956Y-139350000D01*
X210223929Y-139348377D01*
X210191219Y-139343525D01*
X210159143Y-139335491D01*
X210128009Y-139324351D01*
X210098116Y-139310213D01*
X210069753Y-139293213D01*
X210043193Y-139273515D01*
X210018692Y-139251308D01*
X209996485Y-139226807D01*
X209976787Y-139200247D01*
X209959787Y-139171884D01*
X209945649Y-139141991D01*
X209934509Y-139110857D01*
X209926475Y-139078781D01*
X209921623Y-139046071D01*
X209920000Y-139013044D01*
X209920000Y-138136956D01*
X209921623Y-138103929D01*
X209926475Y-138071219D01*
X209934509Y-138039143D01*
X209945649Y-138008009D01*
X209959787Y-137978116D01*
X209976787Y-137949753D01*
X209996485Y-137923193D01*
X210018692Y-137898692D01*
X210043193Y-137876485D01*
X210069753Y-137856787D01*
X210098116Y-137839787D01*
X210128009Y-137825649D01*
X210159143Y-137814509D01*
X210191219Y-137806475D01*
X210223929Y-137801623D01*
X210256956Y-137800000D01*
X211383044Y-137800000D01*
X211416071Y-137801623D01*
X211416071Y-137801623D01*
G37*
D13*
X210820000Y-138575000D03*
G04 #@! TD*
D16*
G04 #@! TO.C,JP7*
X175260000Y-137795000D03*
D17*
X177800000Y-137795000D03*
G04 #@! TD*
D12*
G04 #@! TO.C,R17*
G36*
X115776207Y-134181542D02*
X115807287Y-134186152D01*
X115837766Y-134193787D01*
X115867350Y-134204372D01*
X115895754Y-134217806D01*
X115922704Y-134233959D01*
X115947942Y-134252677D01*
X115971223Y-134273777D01*
X115992323Y-134297058D01*
X116011041Y-134322296D01*
X116027194Y-134349246D01*
X116040628Y-134377650D01*
X116051213Y-134407234D01*
X116058848Y-134437713D01*
X116063458Y-134468793D01*
X116065000Y-134500176D01*
X116065000Y-136009824D01*
X116063458Y-136041207D01*
X116058848Y-136072287D01*
X116051213Y-136102766D01*
X116040628Y-136132350D01*
X116027194Y-136160754D01*
X116011041Y-136187704D01*
X115992323Y-136212942D01*
X115971223Y-136236223D01*
X115947942Y-136257323D01*
X115922704Y-136276041D01*
X115895754Y-136292194D01*
X115867350Y-136305628D01*
X115837766Y-136316213D01*
X115807287Y-136323848D01*
X115776207Y-136328458D01*
X115744824Y-136330000D01*
X114560176Y-136330000D01*
X114528793Y-136328458D01*
X114497713Y-136323848D01*
X114467234Y-136316213D01*
X114437650Y-136305628D01*
X114409246Y-136292194D01*
X114382296Y-136276041D01*
X114357058Y-136257323D01*
X114333777Y-136236223D01*
X114312677Y-136212942D01*
X114293959Y-136187704D01*
X114277806Y-136160754D01*
X114264372Y-136132350D01*
X114253787Y-136102766D01*
X114246152Y-136072287D01*
X114241542Y-136041207D01*
X114240000Y-136009824D01*
X114240000Y-134500176D01*
X114241542Y-134468793D01*
X114246152Y-134437713D01*
X114253787Y-134407234D01*
X114264372Y-134377650D01*
X114277806Y-134349246D01*
X114293959Y-134322296D01*
X114312677Y-134297058D01*
X114333777Y-134273777D01*
X114357058Y-134252677D01*
X114382296Y-134233959D01*
X114409246Y-134217806D01*
X114437650Y-134204372D01*
X114467234Y-134193787D01*
X114497713Y-134186152D01*
X114528793Y-134181542D01*
X114560176Y-134180000D01*
X115744824Y-134180000D01*
X115776207Y-134181542D01*
X115776207Y-134181542D01*
G37*
D26*
X115152500Y-135255000D03*
D12*
G36*
X112801207Y-134181542D02*
X112832287Y-134186152D01*
X112862766Y-134193787D01*
X112892350Y-134204372D01*
X112920754Y-134217806D01*
X112947704Y-134233959D01*
X112972942Y-134252677D01*
X112996223Y-134273777D01*
X113017323Y-134297058D01*
X113036041Y-134322296D01*
X113052194Y-134349246D01*
X113065628Y-134377650D01*
X113076213Y-134407234D01*
X113083848Y-134437713D01*
X113088458Y-134468793D01*
X113090000Y-134500176D01*
X113090000Y-136009824D01*
X113088458Y-136041207D01*
X113083848Y-136072287D01*
X113076213Y-136102766D01*
X113065628Y-136132350D01*
X113052194Y-136160754D01*
X113036041Y-136187704D01*
X113017323Y-136212942D01*
X112996223Y-136236223D01*
X112972942Y-136257323D01*
X112947704Y-136276041D01*
X112920754Y-136292194D01*
X112892350Y-136305628D01*
X112862766Y-136316213D01*
X112832287Y-136323848D01*
X112801207Y-136328458D01*
X112769824Y-136330000D01*
X111585176Y-136330000D01*
X111553793Y-136328458D01*
X111522713Y-136323848D01*
X111492234Y-136316213D01*
X111462650Y-136305628D01*
X111434246Y-136292194D01*
X111407296Y-136276041D01*
X111382058Y-136257323D01*
X111358777Y-136236223D01*
X111337677Y-136212942D01*
X111318959Y-136187704D01*
X111302806Y-136160754D01*
X111289372Y-136132350D01*
X111278787Y-136102766D01*
X111271152Y-136072287D01*
X111266542Y-136041207D01*
X111265000Y-136009824D01*
X111265000Y-134500176D01*
X111266542Y-134468793D01*
X111271152Y-134437713D01*
X111278787Y-134407234D01*
X111289372Y-134377650D01*
X111302806Y-134349246D01*
X111318959Y-134322296D01*
X111337677Y-134297058D01*
X111358777Y-134273777D01*
X111382058Y-134252677D01*
X111407296Y-134233959D01*
X111434246Y-134217806D01*
X111462650Y-134204372D01*
X111492234Y-134193787D01*
X111522713Y-134186152D01*
X111553793Y-134181542D01*
X111585176Y-134180000D01*
X112769824Y-134180000D01*
X112801207Y-134181542D01*
X112801207Y-134181542D01*
G37*
D26*
X112177500Y-135255000D03*
G04 #@! TD*
D12*
G04 #@! TO.C,R19*
G36*
X67081207Y-134181542D02*
X67112287Y-134186152D01*
X67142766Y-134193787D01*
X67172350Y-134204372D01*
X67200754Y-134217806D01*
X67227704Y-134233959D01*
X67252942Y-134252677D01*
X67276223Y-134273777D01*
X67297323Y-134297058D01*
X67316041Y-134322296D01*
X67332194Y-134349246D01*
X67345628Y-134377650D01*
X67356213Y-134407234D01*
X67363848Y-134437713D01*
X67368458Y-134468793D01*
X67370000Y-134500176D01*
X67370000Y-136009824D01*
X67368458Y-136041207D01*
X67363848Y-136072287D01*
X67356213Y-136102766D01*
X67345628Y-136132350D01*
X67332194Y-136160754D01*
X67316041Y-136187704D01*
X67297323Y-136212942D01*
X67276223Y-136236223D01*
X67252942Y-136257323D01*
X67227704Y-136276041D01*
X67200754Y-136292194D01*
X67172350Y-136305628D01*
X67142766Y-136316213D01*
X67112287Y-136323848D01*
X67081207Y-136328458D01*
X67049824Y-136330000D01*
X65865176Y-136330000D01*
X65833793Y-136328458D01*
X65802713Y-136323848D01*
X65772234Y-136316213D01*
X65742650Y-136305628D01*
X65714246Y-136292194D01*
X65687296Y-136276041D01*
X65662058Y-136257323D01*
X65638777Y-136236223D01*
X65617677Y-136212942D01*
X65598959Y-136187704D01*
X65582806Y-136160754D01*
X65569372Y-136132350D01*
X65558787Y-136102766D01*
X65551152Y-136072287D01*
X65546542Y-136041207D01*
X65545000Y-136009824D01*
X65545000Y-134500176D01*
X65546542Y-134468793D01*
X65551152Y-134437713D01*
X65558787Y-134407234D01*
X65569372Y-134377650D01*
X65582806Y-134349246D01*
X65598959Y-134322296D01*
X65617677Y-134297058D01*
X65638777Y-134273777D01*
X65662058Y-134252677D01*
X65687296Y-134233959D01*
X65714246Y-134217806D01*
X65742650Y-134204372D01*
X65772234Y-134193787D01*
X65802713Y-134186152D01*
X65833793Y-134181542D01*
X65865176Y-134180000D01*
X67049824Y-134180000D01*
X67081207Y-134181542D01*
X67081207Y-134181542D01*
G37*
D26*
X66457500Y-135255000D03*
D12*
G36*
X70056207Y-134181542D02*
X70087287Y-134186152D01*
X70117766Y-134193787D01*
X70147350Y-134204372D01*
X70175754Y-134217806D01*
X70202704Y-134233959D01*
X70227942Y-134252677D01*
X70251223Y-134273777D01*
X70272323Y-134297058D01*
X70291041Y-134322296D01*
X70307194Y-134349246D01*
X70320628Y-134377650D01*
X70331213Y-134407234D01*
X70338848Y-134437713D01*
X70343458Y-134468793D01*
X70345000Y-134500176D01*
X70345000Y-136009824D01*
X70343458Y-136041207D01*
X70338848Y-136072287D01*
X70331213Y-136102766D01*
X70320628Y-136132350D01*
X70307194Y-136160754D01*
X70291041Y-136187704D01*
X70272323Y-136212942D01*
X70251223Y-136236223D01*
X70227942Y-136257323D01*
X70202704Y-136276041D01*
X70175754Y-136292194D01*
X70147350Y-136305628D01*
X70117766Y-136316213D01*
X70087287Y-136323848D01*
X70056207Y-136328458D01*
X70024824Y-136330000D01*
X68840176Y-136330000D01*
X68808793Y-136328458D01*
X68777713Y-136323848D01*
X68747234Y-136316213D01*
X68717650Y-136305628D01*
X68689246Y-136292194D01*
X68662296Y-136276041D01*
X68637058Y-136257323D01*
X68613777Y-136236223D01*
X68592677Y-136212942D01*
X68573959Y-136187704D01*
X68557806Y-136160754D01*
X68544372Y-136132350D01*
X68533787Y-136102766D01*
X68526152Y-136072287D01*
X68521542Y-136041207D01*
X68520000Y-136009824D01*
X68520000Y-134500176D01*
X68521542Y-134468793D01*
X68526152Y-134437713D01*
X68533787Y-134407234D01*
X68544372Y-134377650D01*
X68557806Y-134349246D01*
X68573959Y-134322296D01*
X68592677Y-134297058D01*
X68613777Y-134273777D01*
X68637058Y-134252677D01*
X68662296Y-134233959D01*
X68689246Y-134217806D01*
X68717650Y-134204372D01*
X68747234Y-134193787D01*
X68777713Y-134186152D01*
X68808793Y-134181542D01*
X68840176Y-134180000D01*
X70024824Y-134180000D01*
X70056207Y-134181542D01*
X70056207Y-134181542D01*
G37*
D26*
X69432500Y-135255000D03*
G04 #@! TD*
D12*
G04 #@! TO.C,R20*
G36*
X47196207Y-134181542D02*
X47227287Y-134186152D01*
X47257766Y-134193787D01*
X47287350Y-134204372D01*
X47315754Y-134217806D01*
X47342704Y-134233959D01*
X47367942Y-134252677D01*
X47391223Y-134273777D01*
X47412323Y-134297058D01*
X47431041Y-134322296D01*
X47447194Y-134349246D01*
X47460628Y-134377650D01*
X47471213Y-134407234D01*
X47478848Y-134437713D01*
X47483458Y-134468793D01*
X47485000Y-134500176D01*
X47485000Y-136009824D01*
X47483458Y-136041207D01*
X47478848Y-136072287D01*
X47471213Y-136102766D01*
X47460628Y-136132350D01*
X47447194Y-136160754D01*
X47431041Y-136187704D01*
X47412323Y-136212942D01*
X47391223Y-136236223D01*
X47367942Y-136257323D01*
X47342704Y-136276041D01*
X47315754Y-136292194D01*
X47287350Y-136305628D01*
X47257766Y-136316213D01*
X47227287Y-136323848D01*
X47196207Y-136328458D01*
X47164824Y-136330000D01*
X45980176Y-136330000D01*
X45948793Y-136328458D01*
X45917713Y-136323848D01*
X45887234Y-136316213D01*
X45857650Y-136305628D01*
X45829246Y-136292194D01*
X45802296Y-136276041D01*
X45777058Y-136257323D01*
X45753777Y-136236223D01*
X45732677Y-136212942D01*
X45713959Y-136187704D01*
X45697806Y-136160754D01*
X45684372Y-136132350D01*
X45673787Y-136102766D01*
X45666152Y-136072287D01*
X45661542Y-136041207D01*
X45660000Y-136009824D01*
X45660000Y-134500176D01*
X45661542Y-134468793D01*
X45666152Y-134437713D01*
X45673787Y-134407234D01*
X45684372Y-134377650D01*
X45697806Y-134349246D01*
X45713959Y-134322296D01*
X45732677Y-134297058D01*
X45753777Y-134273777D01*
X45777058Y-134252677D01*
X45802296Y-134233959D01*
X45829246Y-134217806D01*
X45857650Y-134204372D01*
X45887234Y-134193787D01*
X45917713Y-134186152D01*
X45948793Y-134181542D01*
X45980176Y-134180000D01*
X47164824Y-134180000D01*
X47196207Y-134181542D01*
X47196207Y-134181542D01*
G37*
D26*
X46572500Y-135255000D03*
D12*
G36*
X44221207Y-134181542D02*
X44252287Y-134186152D01*
X44282766Y-134193787D01*
X44312350Y-134204372D01*
X44340754Y-134217806D01*
X44367704Y-134233959D01*
X44392942Y-134252677D01*
X44416223Y-134273777D01*
X44437323Y-134297058D01*
X44456041Y-134322296D01*
X44472194Y-134349246D01*
X44485628Y-134377650D01*
X44496213Y-134407234D01*
X44503848Y-134437713D01*
X44508458Y-134468793D01*
X44510000Y-134500176D01*
X44510000Y-136009824D01*
X44508458Y-136041207D01*
X44503848Y-136072287D01*
X44496213Y-136102766D01*
X44485628Y-136132350D01*
X44472194Y-136160754D01*
X44456041Y-136187704D01*
X44437323Y-136212942D01*
X44416223Y-136236223D01*
X44392942Y-136257323D01*
X44367704Y-136276041D01*
X44340754Y-136292194D01*
X44312350Y-136305628D01*
X44282766Y-136316213D01*
X44252287Y-136323848D01*
X44221207Y-136328458D01*
X44189824Y-136330000D01*
X43005176Y-136330000D01*
X42973793Y-136328458D01*
X42942713Y-136323848D01*
X42912234Y-136316213D01*
X42882650Y-136305628D01*
X42854246Y-136292194D01*
X42827296Y-136276041D01*
X42802058Y-136257323D01*
X42778777Y-136236223D01*
X42757677Y-136212942D01*
X42738959Y-136187704D01*
X42722806Y-136160754D01*
X42709372Y-136132350D01*
X42698787Y-136102766D01*
X42691152Y-136072287D01*
X42686542Y-136041207D01*
X42685000Y-136009824D01*
X42685000Y-134500176D01*
X42686542Y-134468793D01*
X42691152Y-134437713D01*
X42698787Y-134407234D01*
X42709372Y-134377650D01*
X42722806Y-134349246D01*
X42738959Y-134322296D01*
X42757677Y-134297058D01*
X42778777Y-134273777D01*
X42802058Y-134252677D01*
X42827296Y-134233959D01*
X42854246Y-134217806D01*
X42882650Y-134204372D01*
X42912234Y-134193787D01*
X42942713Y-134186152D01*
X42973793Y-134181542D01*
X43005176Y-134180000D01*
X44189824Y-134180000D01*
X44221207Y-134181542D01*
X44221207Y-134181542D01*
G37*
D26*
X43597500Y-135255000D03*
G04 #@! TD*
D12*
G04 #@! TO.C,R18*
G36*
X89941207Y-134181542D02*
X89972287Y-134186152D01*
X90002766Y-134193787D01*
X90032350Y-134204372D01*
X90060754Y-134217806D01*
X90087704Y-134233959D01*
X90112942Y-134252677D01*
X90136223Y-134273777D01*
X90157323Y-134297058D01*
X90176041Y-134322296D01*
X90192194Y-134349246D01*
X90205628Y-134377650D01*
X90216213Y-134407234D01*
X90223848Y-134437713D01*
X90228458Y-134468793D01*
X90230000Y-134500176D01*
X90230000Y-136009824D01*
X90228458Y-136041207D01*
X90223848Y-136072287D01*
X90216213Y-136102766D01*
X90205628Y-136132350D01*
X90192194Y-136160754D01*
X90176041Y-136187704D01*
X90157323Y-136212942D01*
X90136223Y-136236223D01*
X90112942Y-136257323D01*
X90087704Y-136276041D01*
X90060754Y-136292194D01*
X90032350Y-136305628D01*
X90002766Y-136316213D01*
X89972287Y-136323848D01*
X89941207Y-136328458D01*
X89909824Y-136330000D01*
X88725176Y-136330000D01*
X88693793Y-136328458D01*
X88662713Y-136323848D01*
X88632234Y-136316213D01*
X88602650Y-136305628D01*
X88574246Y-136292194D01*
X88547296Y-136276041D01*
X88522058Y-136257323D01*
X88498777Y-136236223D01*
X88477677Y-136212942D01*
X88458959Y-136187704D01*
X88442806Y-136160754D01*
X88429372Y-136132350D01*
X88418787Y-136102766D01*
X88411152Y-136072287D01*
X88406542Y-136041207D01*
X88405000Y-136009824D01*
X88405000Y-134500176D01*
X88406542Y-134468793D01*
X88411152Y-134437713D01*
X88418787Y-134407234D01*
X88429372Y-134377650D01*
X88442806Y-134349246D01*
X88458959Y-134322296D01*
X88477677Y-134297058D01*
X88498777Y-134273777D01*
X88522058Y-134252677D01*
X88547296Y-134233959D01*
X88574246Y-134217806D01*
X88602650Y-134204372D01*
X88632234Y-134193787D01*
X88662713Y-134186152D01*
X88693793Y-134181542D01*
X88725176Y-134180000D01*
X89909824Y-134180000D01*
X89941207Y-134181542D01*
X89941207Y-134181542D01*
G37*
D26*
X89317500Y-135255000D03*
D12*
G36*
X92916207Y-134181542D02*
X92947287Y-134186152D01*
X92977766Y-134193787D01*
X93007350Y-134204372D01*
X93035754Y-134217806D01*
X93062704Y-134233959D01*
X93087942Y-134252677D01*
X93111223Y-134273777D01*
X93132323Y-134297058D01*
X93151041Y-134322296D01*
X93167194Y-134349246D01*
X93180628Y-134377650D01*
X93191213Y-134407234D01*
X93198848Y-134437713D01*
X93203458Y-134468793D01*
X93205000Y-134500176D01*
X93205000Y-136009824D01*
X93203458Y-136041207D01*
X93198848Y-136072287D01*
X93191213Y-136102766D01*
X93180628Y-136132350D01*
X93167194Y-136160754D01*
X93151041Y-136187704D01*
X93132323Y-136212942D01*
X93111223Y-136236223D01*
X93087942Y-136257323D01*
X93062704Y-136276041D01*
X93035754Y-136292194D01*
X93007350Y-136305628D01*
X92977766Y-136316213D01*
X92947287Y-136323848D01*
X92916207Y-136328458D01*
X92884824Y-136330000D01*
X91700176Y-136330000D01*
X91668793Y-136328458D01*
X91637713Y-136323848D01*
X91607234Y-136316213D01*
X91577650Y-136305628D01*
X91549246Y-136292194D01*
X91522296Y-136276041D01*
X91497058Y-136257323D01*
X91473777Y-136236223D01*
X91452677Y-136212942D01*
X91433959Y-136187704D01*
X91417806Y-136160754D01*
X91404372Y-136132350D01*
X91393787Y-136102766D01*
X91386152Y-136072287D01*
X91381542Y-136041207D01*
X91380000Y-136009824D01*
X91380000Y-134500176D01*
X91381542Y-134468793D01*
X91386152Y-134437713D01*
X91393787Y-134407234D01*
X91404372Y-134377650D01*
X91417806Y-134349246D01*
X91433959Y-134322296D01*
X91452677Y-134297058D01*
X91473777Y-134273777D01*
X91497058Y-134252677D01*
X91522296Y-134233959D01*
X91549246Y-134217806D01*
X91577650Y-134204372D01*
X91607234Y-134193787D01*
X91637713Y-134186152D01*
X91668793Y-134181542D01*
X91700176Y-134180000D01*
X92884824Y-134180000D01*
X92916207Y-134181542D01*
X92916207Y-134181542D01*
G37*
D26*
X92292500Y-135255000D03*
G04 #@! TD*
D16*
G04 #@! TO.C,TP5*
X59055000Y-133985000D03*
G04 #@! TD*
G04 #@! TO.C,TP6*
X55245000Y-133985000D03*
G04 #@! TD*
D12*
G04 #@! TO.C,R6*
G36*
X70056207Y-131006542D02*
X70087287Y-131011152D01*
X70117766Y-131018787D01*
X70147350Y-131029372D01*
X70175754Y-131042806D01*
X70202704Y-131058959D01*
X70227942Y-131077677D01*
X70251223Y-131098777D01*
X70272323Y-131122058D01*
X70291041Y-131147296D01*
X70307194Y-131174246D01*
X70320628Y-131202650D01*
X70331213Y-131232234D01*
X70338848Y-131262713D01*
X70343458Y-131293793D01*
X70345000Y-131325176D01*
X70345000Y-132834824D01*
X70343458Y-132866207D01*
X70338848Y-132897287D01*
X70331213Y-132927766D01*
X70320628Y-132957350D01*
X70307194Y-132985754D01*
X70291041Y-133012704D01*
X70272323Y-133037942D01*
X70251223Y-133061223D01*
X70227942Y-133082323D01*
X70202704Y-133101041D01*
X70175754Y-133117194D01*
X70147350Y-133130628D01*
X70117766Y-133141213D01*
X70087287Y-133148848D01*
X70056207Y-133153458D01*
X70024824Y-133155000D01*
X68840176Y-133155000D01*
X68808793Y-133153458D01*
X68777713Y-133148848D01*
X68747234Y-133141213D01*
X68717650Y-133130628D01*
X68689246Y-133117194D01*
X68662296Y-133101041D01*
X68637058Y-133082323D01*
X68613777Y-133061223D01*
X68592677Y-133037942D01*
X68573959Y-133012704D01*
X68557806Y-132985754D01*
X68544372Y-132957350D01*
X68533787Y-132927766D01*
X68526152Y-132897287D01*
X68521542Y-132866207D01*
X68520000Y-132834824D01*
X68520000Y-131325176D01*
X68521542Y-131293793D01*
X68526152Y-131262713D01*
X68533787Y-131232234D01*
X68544372Y-131202650D01*
X68557806Y-131174246D01*
X68573959Y-131147296D01*
X68592677Y-131122058D01*
X68613777Y-131098777D01*
X68637058Y-131077677D01*
X68662296Y-131058959D01*
X68689246Y-131042806D01*
X68717650Y-131029372D01*
X68747234Y-131018787D01*
X68777713Y-131011152D01*
X68808793Y-131006542D01*
X68840176Y-131005000D01*
X70024824Y-131005000D01*
X70056207Y-131006542D01*
X70056207Y-131006542D01*
G37*
D26*
X69432500Y-132080000D03*
D12*
G36*
X67081207Y-131006542D02*
X67112287Y-131011152D01*
X67142766Y-131018787D01*
X67172350Y-131029372D01*
X67200754Y-131042806D01*
X67227704Y-131058959D01*
X67252942Y-131077677D01*
X67276223Y-131098777D01*
X67297323Y-131122058D01*
X67316041Y-131147296D01*
X67332194Y-131174246D01*
X67345628Y-131202650D01*
X67356213Y-131232234D01*
X67363848Y-131262713D01*
X67368458Y-131293793D01*
X67370000Y-131325176D01*
X67370000Y-132834824D01*
X67368458Y-132866207D01*
X67363848Y-132897287D01*
X67356213Y-132927766D01*
X67345628Y-132957350D01*
X67332194Y-132985754D01*
X67316041Y-133012704D01*
X67297323Y-133037942D01*
X67276223Y-133061223D01*
X67252942Y-133082323D01*
X67227704Y-133101041D01*
X67200754Y-133117194D01*
X67172350Y-133130628D01*
X67142766Y-133141213D01*
X67112287Y-133148848D01*
X67081207Y-133153458D01*
X67049824Y-133155000D01*
X65865176Y-133155000D01*
X65833793Y-133153458D01*
X65802713Y-133148848D01*
X65772234Y-133141213D01*
X65742650Y-133130628D01*
X65714246Y-133117194D01*
X65687296Y-133101041D01*
X65662058Y-133082323D01*
X65638777Y-133061223D01*
X65617677Y-133037942D01*
X65598959Y-133012704D01*
X65582806Y-132985754D01*
X65569372Y-132957350D01*
X65558787Y-132927766D01*
X65551152Y-132897287D01*
X65546542Y-132866207D01*
X65545000Y-132834824D01*
X65545000Y-131325176D01*
X65546542Y-131293793D01*
X65551152Y-131262713D01*
X65558787Y-131232234D01*
X65569372Y-131202650D01*
X65582806Y-131174246D01*
X65598959Y-131147296D01*
X65617677Y-131122058D01*
X65638777Y-131098777D01*
X65662058Y-131077677D01*
X65687296Y-131058959D01*
X65714246Y-131042806D01*
X65742650Y-131029372D01*
X65772234Y-131018787D01*
X65802713Y-131011152D01*
X65833793Y-131006542D01*
X65865176Y-131005000D01*
X67049824Y-131005000D01*
X67081207Y-131006542D01*
X67081207Y-131006542D01*
G37*
D26*
X66457500Y-132080000D03*
G04 #@! TD*
D12*
G04 #@! TO.C,R4*
G36*
X89941207Y-131006542D02*
X89972287Y-131011152D01*
X90002766Y-131018787D01*
X90032350Y-131029372D01*
X90060754Y-131042806D01*
X90087704Y-131058959D01*
X90112942Y-131077677D01*
X90136223Y-131098777D01*
X90157323Y-131122058D01*
X90176041Y-131147296D01*
X90192194Y-131174246D01*
X90205628Y-131202650D01*
X90216213Y-131232234D01*
X90223848Y-131262713D01*
X90228458Y-131293793D01*
X90230000Y-131325176D01*
X90230000Y-132834824D01*
X90228458Y-132866207D01*
X90223848Y-132897287D01*
X90216213Y-132927766D01*
X90205628Y-132957350D01*
X90192194Y-132985754D01*
X90176041Y-133012704D01*
X90157323Y-133037942D01*
X90136223Y-133061223D01*
X90112942Y-133082323D01*
X90087704Y-133101041D01*
X90060754Y-133117194D01*
X90032350Y-133130628D01*
X90002766Y-133141213D01*
X89972287Y-133148848D01*
X89941207Y-133153458D01*
X89909824Y-133155000D01*
X88725176Y-133155000D01*
X88693793Y-133153458D01*
X88662713Y-133148848D01*
X88632234Y-133141213D01*
X88602650Y-133130628D01*
X88574246Y-133117194D01*
X88547296Y-133101041D01*
X88522058Y-133082323D01*
X88498777Y-133061223D01*
X88477677Y-133037942D01*
X88458959Y-133012704D01*
X88442806Y-132985754D01*
X88429372Y-132957350D01*
X88418787Y-132927766D01*
X88411152Y-132897287D01*
X88406542Y-132866207D01*
X88405000Y-132834824D01*
X88405000Y-131325176D01*
X88406542Y-131293793D01*
X88411152Y-131262713D01*
X88418787Y-131232234D01*
X88429372Y-131202650D01*
X88442806Y-131174246D01*
X88458959Y-131147296D01*
X88477677Y-131122058D01*
X88498777Y-131098777D01*
X88522058Y-131077677D01*
X88547296Y-131058959D01*
X88574246Y-131042806D01*
X88602650Y-131029372D01*
X88632234Y-131018787D01*
X88662713Y-131011152D01*
X88693793Y-131006542D01*
X88725176Y-131005000D01*
X89909824Y-131005000D01*
X89941207Y-131006542D01*
X89941207Y-131006542D01*
G37*
D26*
X89317500Y-132080000D03*
D12*
G36*
X92916207Y-131006542D02*
X92947287Y-131011152D01*
X92977766Y-131018787D01*
X93007350Y-131029372D01*
X93035754Y-131042806D01*
X93062704Y-131058959D01*
X93087942Y-131077677D01*
X93111223Y-131098777D01*
X93132323Y-131122058D01*
X93151041Y-131147296D01*
X93167194Y-131174246D01*
X93180628Y-131202650D01*
X93191213Y-131232234D01*
X93198848Y-131262713D01*
X93203458Y-131293793D01*
X93205000Y-131325176D01*
X93205000Y-132834824D01*
X93203458Y-132866207D01*
X93198848Y-132897287D01*
X93191213Y-132927766D01*
X93180628Y-132957350D01*
X93167194Y-132985754D01*
X93151041Y-133012704D01*
X93132323Y-133037942D01*
X93111223Y-133061223D01*
X93087942Y-133082323D01*
X93062704Y-133101041D01*
X93035754Y-133117194D01*
X93007350Y-133130628D01*
X92977766Y-133141213D01*
X92947287Y-133148848D01*
X92916207Y-133153458D01*
X92884824Y-133155000D01*
X91700176Y-133155000D01*
X91668793Y-133153458D01*
X91637713Y-133148848D01*
X91607234Y-133141213D01*
X91577650Y-133130628D01*
X91549246Y-133117194D01*
X91522296Y-133101041D01*
X91497058Y-133082323D01*
X91473777Y-133061223D01*
X91452677Y-133037942D01*
X91433959Y-133012704D01*
X91417806Y-132985754D01*
X91404372Y-132957350D01*
X91393787Y-132927766D01*
X91386152Y-132897287D01*
X91381542Y-132866207D01*
X91380000Y-132834824D01*
X91380000Y-131325176D01*
X91381542Y-131293793D01*
X91386152Y-131262713D01*
X91393787Y-131232234D01*
X91404372Y-131202650D01*
X91417806Y-131174246D01*
X91433959Y-131147296D01*
X91452677Y-131122058D01*
X91473777Y-131098777D01*
X91497058Y-131077677D01*
X91522296Y-131058959D01*
X91549246Y-131042806D01*
X91577650Y-131029372D01*
X91607234Y-131018787D01*
X91637713Y-131011152D01*
X91668793Y-131006542D01*
X91700176Y-131005000D01*
X92884824Y-131005000D01*
X92916207Y-131006542D01*
X92916207Y-131006542D01*
G37*
D26*
X92292500Y-132080000D03*
G04 #@! TD*
D12*
G04 #@! TO.C,R2*
G36*
X115776207Y-131006542D02*
X115807287Y-131011152D01*
X115837766Y-131018787D01*
X115867350Y-131029372D01*
X115895754Y-131042806D01*
X115922704Y-131058959D01*
X115947942Y-131077677D01*
X115971223Y-131098777D01*
X115992323Y-131122058D01*
X116011041Y-131147296D01*
X116027194Y-131174246D01*
X116040628Y-131202650D01*
X116051213Y-131232234D01*
X116058848Y-131262713D01*
X116063458Y-131293793D01*
X116065000Y-131325176D01*
X116065000Y-132834824D01*
X116063458Y-132866207D01*
X116058848Y-132897287D01*
X116051213Y-132927766D01*
X116040628Y-132957350D01*
X116027194Y-132985754D01*
X116011041Y-133012704D01*
X115992323Y-133037942D01*
X115971223Y-133061223D01*
X115947942Y-133082323D01*
X115922704Y-133101041D01*
X115895754Y-133117194D01*
X115867350Y-133130628D01*
X115837766Y-133141213D01*
X115807287Y-133148848D01*
X115776207Y-133153458D01*
X115744824Y-133155000D01*
X114560176Y-133155000D01*
X114528793Y-133153458D01*
X114497713Y-133148848D01*
X114467234Y-133141213D01*
X114437650Y-133130628D01*
X114409246Y-133117194D01*
X114382296Y-133101041D01*
X114357058Y-133082323D01*
X114333777Y-133061223D01*
X114312677Y-133037942D01*
X114293959Y-133012704D01*
X114277806Y-132985754D01*
X114264372Y-132957350D01*
X114253787Y-132927766D01*
X114246152Y-132897287D01*
X114241542Y-132866207D01*
X114240000Y-132834824D01*
X114240000Y-131325176D01*
X114241542Y-131293793D01*
X114246152Y-131262713D01*
X114253787Y-131232234D01*
X114264372Y-131202650D01*
X114277806Y-131174246D01*
X114293959Y-131147296D01*
X114312677Y-131122058D01*
X114333777Y-131098777D01*
X114357058Y-131077677D01*
X114382296Y-131058959D01*
X114409246Y-131042806D01*
X114437650Y-131029372D01*
X114467234Y-131018787D01*
X114497713Y-131011152D01*
X114528793Y-131006542D01*
X114560176Y-131005000D01*
X115744824Y-131005000D01*
X115776207Y-131006542D01*
X115776207Y-131006542D01*
G37*
D26*
X115152500Y-132080000D03*
D12*
G36*
X112801207Y-131006542D02*
X112832287Y-131011152D01*
X112862766Y-131018787D01*
X112892350Y-131029372D01*
X112920754Y-131042806D01*
X112947704Y-131058959D01*
X112972942Y-131077677D01*
X112996223Y-131098777D01*
X113017323Y-131122058D01*
X113036041Y-131147296D01*
X113052194Y-131174246D01*
X113065628Y-131202650D01*
X113076213Y-131232234D01*
X113083848Y-131262713D01*
X113088458Y-131293793D01*
X113090000Y-131325176D01*
X113090000Y-132834824D01*
X113088458Y-132866207D01*
X113083848Y-132897287D01*
X113076213Y-132927766D01*
X113065628Y-132957350D01*
X113052194Y-132985754D01*
X113036041Y-133012704D01*
X113017323Y-133037942D01*
X112996223Y-133061223D01*
X112972942Y-133082323D01*
X112947704Y-133101041D01*
X112920754Y-133117194D01*
X112892350Y-133130628D01*
X112862766Y-133141213D01*
X112832287Y-133148848D01*
X112801207Y-133153458D01*
X112769824Y-133155000D01*
X111585176Y-133155000D01*
X111553793Y-133153458D01*
X111522713Y-133148848D01*
X111492234Y-133141213D01*
X111462650Y-133130628D01*
X111434246Y-133117194D01*
X111407296Y-133101041D01*
X111382058Y-133082323D01*
X111358777Y-133061223D01*
X111337677Y-133037942D01*
X111318959Y-133012704D01*
X111302806Y-132985754D01*
X111289372Y-132957350D01*
X111278787Y-132927766D01*
X111271152Y-132897287D01*
X111266542Y-132866207D01*
X111265000Y-132834824D01*
X111265000Y-131325176D01*
X111266542Y-131293793D01*
X111271152Y-131262713D01*
X111278787Y-131232234D01*
X111289372Y-131202650D01*
X111302806Y-131174246D01*
X111318959Y-131147296D01*
X111337677Y-131122058D01*
X111358777Y-131098777D01*
X111382058Y-131077677D01*
X111407296Y-131058959D01*
X111434246Y-131042806D01*
X111462650Y-131029372D01*
X111492234Y-131018787D01*
X111522713Y-131011152D01*
X111553793Y-131006542D01*
X111585176Y-131005000D01*
X112769824Y-131005000D01*
X112801207Y-131006542D01*
X112801207Y-131006542D01*
G37*
D26*
X112177500Y-132080000D03*
G04 #@! TD*
D12*
G04 #@! TO.C,R7*
G36*
X44221207Y-131006542D02*
X44252287Y-131011152D01*
X44282766Y-131018787D01*
X44312350Y-131029372D01*
X44340754Y-131042806D01*
X44367704Y-131058959D01*
X44392942Y-131077677D01*
X44416223Y-131098777D01*
X44437323Y-131122058D01*
X44456041Y-131147296D01*
X44472194Y-131174246D01*
X44485628Y-131202650D01*
X44496213Y-131232234D01*
X44503848Y-131262713D01*
X44508458Y-131293793D01*
X44510000Y-131325176D01*
X44510000Y-132834824D01*
X44508458Y-132866207D01*
X44503848Y-132897287D01*
X44496213Y-132927766D01*
X44485628Y-132957350D01*
X44472194Y-132985754D01*
X44456041Y-133012704D01*
X44437323Y-133037942D01*
X44416223Y-133061223D01*
X44392942Y-133082323D01*
X44367704Y-133101041D01*
X44340754Y-133117194D01*
X44312350Y-133130628D01*
X44282766Y-133141213D01*
X44252287Y-133148848D01*
X44221207Y-133153458D01*
X44189824Y-133155000D01*
X43005176Y-133155000D01*
X42973793Y-133153458D01*
X42942713Y-133148848D01*
X42912234Y-133141213D01*
X42882650Y-133130628D01*
X42854246Y-133117194D01*
X42827296Y-133101041D01*
X42802058Y-133082323D01*
X42778777Y-133061223D01*
X42757677Y-133037942D01*
X42738959Y-133012704D01*
X42722806Y-132985754D01*
X42709372Y-132957350D01*
X42698787Y-132927766D01*
X42691152Y-132897287D01*
X42686542Y-132866207D01*
X42685000Y-132834824D01*
X42685000Y-131325176D01*
X42686542Y-131293793D01*
X42691152Y-131262713D01*
X42698787Y-131232234D01*
X42709372Y-131202650D01*
X42722806Y-131174246D01*
X42738959Y-131147296D01*
X42757677Y-131122058D01*
X42778777Y-131098777D01*
X42802058Y-131077677D01*
X42827296Y-131058959D01*
X42854246Y-131042806D01*
X42882650Y-131029372D01*
X42912234Y-131018787D01*
X42942713Y-131011152D01*
X42973793Y-131006542D01*
X43005176Y-131005000D01*
X44189824Y-131005000D01*
X44221207Y-131006542D01*
X44221207Y-131006542D01*
G37*
D26*
X43597500Y-132080000D03*
D12*
G36*
X47196207Y-131006542D02*
X47227287Y-131011152D01*
X47257766Y-131018787D01*
X47287350Y-131029372D01*
X47315754Y-131042806D01*
X47342704Y-131058959D01*
X47367942Y-131077677D01*
X47391223Y-131098777D01*
X47412323Y-131122058D01*
X47431041Y-131147296D01*
X47447194Y-131174246D01*
X47460628Y-131202650D01*
X47471213Y-131232234D01*
X47478848Y-131262713D01*
X47483458Y-131293793D01*
X47485000Y-131325176D01*
X47485000Y-132834824D01*
X47483458Y-132866207D01*
X47478848Y-132897287D01*
X47471213Y-132927766D01*
X47460628Y-132957350D01*
X47447194Y-132985754D01*
X47431041Y-133012704D01*
X47412323Y-133037942D01*
X47391223Y-133061223D01*
X47367942Y-133082323D01*
X47342704Y-133101041D01*
X47315754Y-133117194D01*
X47287350Y-133130628D01*
X47257766Y-133141213D01*
X47227287Y-133148848D01*
X47196207Y-133153458D01*
X47164824Y-133155000D01*
X45980176Y-133155000D01*
X45948793Y-133153458D01*
X45917713Y-133148848D01*
X45887234Y-133141213D01*
X45857650Y-133130628D01*
X45829246Y-133117194D01*
X45802296Y-133101041D01*
X45777058Y-133082323D01*
X45753777Y-133061223D01*
X45732677Y-133037942D01*
X45713959Y-133012704D01*
X45697806Y-132985754D01*
X45684372Y-132957350D01*
X45673787Y-132927766D01*
X45666152Y-132897287D01*
X45661542Y-132866207D01*
X45660000Y-132834824D01*
X45660000Y-131325176D01*
X45661542Y-131293793D01*
X45666152Y-131262713D01*
X45673787Y-131232234D01*
X45684372Y-131202650D01*
X45697806Y-131174246D01*
X45713959Y-131147296D01*
X45732677Y-131122058D01*
X45753777Y-131098777D01*
X45777058Y-131077677D01*
X45802296Y-131058959D01*
X45829246Y-131042806D01*
X45857650Y-131029372D01*
X45887234Y-131018787D01*
X45917713Y-131011152D01*
X45948793Y-131006542D01*
X45980176Y-131005000D01*
X47164824Y-131005000D01*
X47196207Y-131006542D01*
X47196207Y-131006542D01*
G37*
D26*
X46572500Y-132080000D03*
G04 #@! TD*
D27*
G04 #@! TO.C,R15*
X155575000Y-63500000D03*
D18*
X155575000Y-78740000D03*
G04 #@! TD*
G04 #@! TO.C,R8*
X140335000Y-63500000D03*
D27*
X140335000Y-78740000D03*
G04 #@! TD*
D28*
G04 #@! TO.C,R11*
X160655000Y-76835000D03*
D29*
X160655000Y-64135000D03*
G04 #@! TD*
D27*
G04 #@! TO.C,R10*
X145415000Y-78740000D03*
D18*
X145415000Y-63500000D03*
G04 #@! TD*
D12*
G04 #@! TO.C,R5*
G36*
X214591071Y-133701623D02*
X214623781Y-133706475D01*
X214655857Y-133714509D01*
X214686991Y-133725649D01*
X214716884Y-133739787D01*
X214745247Y-133756787D01*
X214771807Y-133776485D01*
X214796308Y-133798692D01*
X214818515Y-133823193D01*
X214838213Y-133849753D01*
X214855213Y-133878116D01*
X214869351Y-133908009D01*
X214880491Y-133939143D01*
X214888525Y-133971219D01*
X214893377Y-134003929D01*
X214895000Y-134036956D01*
X214895000Y-134913044D01*
X214893377Y-134946071D01*
X214888525Y-134978781D01*
X214880491Y-135010857D01*
X214869351Y-135041991D01*
X214855213Y-135071884D01*
X214838213Y-135100247D01*
X214818515Y-135126807D01*
X214796308Y-135151308D01*
X214771807Y-135173515D01*
X214745247Y-135193213D01*
X214716884Y-135210213D01*
X214686991Y-135224351D01*
X214655857Y-135235491D01*
X214623781Y-135243525D01*
X214591071Y-135248377D01*
X214558044Y-135250000D01*
X213431956Y-135250000D01*
X213398929Y-135248377D01*
X213366219Y-135243525D01*
X213334143Y-135235491D01*
X213303009Y-135224351D01*
X213273116Y-135210213D01*
X213244753Y-135193213D01*
X213218193Y-135173515D01*
X213193692Y-135151308D01*
X213171485Y-135126807D01*
X213151787Y-135100247D01*
X213134787Y-135071884D01*
X213120649Y-135041991D01*
X213109509Y-135010857D01*
X213101475Y-134978781D01*
X213096623Y-134946071D01*
X213095000Y-134913044D01*
X213095000Y-134036956D01*
X213096623Y-134003929D01*
X213101475Y-133971219D01*
X213109509Y-133939143D01*
X213120649Y-133908009D01*
X213134787Y-133878116D01*
X213151787Y-133849753D01*
X213171485Y-133823193D01*
X213193692Y-133798692D01*
X213218193Y-133776485D01*
X213244753Y-133756787D01*
X213273116Y-133739787D01*
X213303009Y-133725649D01*
X213334143Y-133714509D01*
X213366219Y-133706475D01*
X213398929Y-133701623D01*
X213431956Y-133700000D01*
X214558044Y-133700000D01*
X214591071Y-133701623D01*
X214591071Y-133701623D01*
G37*
D13*
X213995000Y-134475000D03*
D12*
G36*
X214591071Y-135751623D02*
X214623781Y-135756475D01*
X214655857Y-135764509D01*
X214686991Y-135775649D01*
X214716884Y-135789787D01*
X214745247Y-135806787D01*
X214771807Y-135826485D01*
X214796308Y-135848692D01*
X214818515Y-135873193D01*
X214838213Y-135899753D01*
X214855213Y-135928116D01*
X214869351Y-135958009D01*
X214880491Y-135989143D01*
X214888525Y-136021219D01*
X214893377Y-136053929D01*
X214895000Y-136086956D01*
X214895000Y-136963044D01*
X214893377Y-136996071D01*
X214888525Y-137028781D01*
X214880491Y-137060857D01*
X214869351Y-137091991D01*
X214855213Y-137121884D01*
X214838213Y-137150247D01*
X214818515Y-137176807D01*
X214796308Y-137201308D01*
X214771807Y-137223515D01*
X214745247Y-137243213D01*
X214716884Y-137260213D01*
X214686991Y-137274351D01*
X214655857Y-137285491D01*
X214623781Y-137293525D01*
X214591071Y-137298377D01*
X214558044Y-137300000D01*
X213431956Y-137300000D01*
X213398929Y-137298377D01*
X213366219Y-137293525D01*
X213334143Y-137285491D01*
X213303009Y-137274351D01*
X213273116Y-137260213D01*
X213244753Y-137243213D01*
X213218193Y-137223515D01*
X213193692Y-137201308D01*
X213171485Y-137176807D01*
X213151787Y-137150247D01*
X213134787Y-137121884D01*
X213120649Y-137091991D01*
X213109509Y-137060857D01*
X213101475Y-137028781D01*
X213096623Y-136996071D01*
X213095000Y-136963044D01*
X213095000Y-136086956D01*
X213096623Y-136053929D01*
X213101475Y-136021219D01*
X213109509Y-135989143D01*
X213120649Y-135958009D01*
X213134787Y-135928116D01*
X213151787Y-135899753D01*
X213171485Y-135873193D01*
X213193692Y-135848692D01*
X213218193Y-135826485D01*
X213244753Y-135806787D01*
X213273116Y-135789787D01*
X213303009Y-135775649D01*
X213334143Y-135764509D01*
X213366219Y-135756475D01*
X213398929Y-135751623D01*
X213431956Y-135750000D01*
X214558044Y-135750000D01*
X214591071Y-135751623D01*
X214591071Y-135751623D01*
G37*
D13*
X213995000Y-136525000D03*
G04 #@! TD*
D27*
G04 #@! TO.C,R9*
X186055000Y-41910000D03*
D18*
X186055000Y-57150000D03*
G04 #@! TD*
D12*
G04 #@! TO.C,R3*
G36*
X206336071Y-133701623D02*
X206368781Y-133706475D01*
X206400857Y-133714509D01*
X206431991Y-133725649D01*
X206461884Y-133739787D01*
X206490247Y-133756787D01*
X206516807Y-133776485D01*
X206541308Y-133798692D01*
X206563515Y-133823193D01*
X206583213Y-133849753D01*
X206600213Y-133878116D01*
X206614351Y-133908009D01*
X206625491Y-133939143D01*
X206633525Y-133971219D01*
X206638377Y-134003929D01*
X206640000Y-134036956D01*
X206640000Y-134913044D01*
X206638377Y-134946071D01*
X206633525Y-134978781D01*
X206625491Y-135010857D01*
X206614351Y-135041991D01*
X206600213Y-135071884D01*
X206583213Y-135100247D01*
X206563515Y-135126807D01*
X206541308Y-135151308D01*
X206516807Y-135173515D01*
X206490247Y-135193213D01*
X206461884Y-135210213D01*
X206431991Y-135224351D01*
X206400857Y-135235491D01*
X206368781Y-135243525D01*
X206336071Y-135248377D01*
X206303044Y-135250000D01*
X205176956Y-135250000D01*
X205143929Y-135248377D01*
X205111219Y-135243525D01*
X205079143Y-135235491D01*
X205048009Y-135224351D01*
X205018116Y-135210213D01*
X204989753Y-135193213D01*
X204963193Y-135173515D01*
X204938692Y-135151308D01*
X204916485Y-135126807D01*
X204896787Y-135100247D01*
X204879787Y-135071884D01*
X204865649Y-135041991D01*
X204854509Y-135010857D01*
X204846475Y-134978781D01*
X204841623Y-134946071D01*
X204840000Y-134913044D01*
X204840000Y-134036956D01*
X204841623Y-134003929D01*
X204846475Y-133971219D01*
X204854509Y-133939143D01*
X204865649Y-133908009D01*
X204879787Y-133878116D01*
X204896787Y-133849753D01*
X204916485Y-133823193D01*
X204938692Y-133798692D01*
X204963193Y-133776485D01*
X204989753Y-133756787D01*
X205018116Y-133739787D01*
X205048009Y-133725649D01*
X205079143Y-133714509D01*
X205111219Y-133706475D01*
X205143929Y-133701623D01*
X205176956Y-133700000D01*
X206303044Y-133700000D01*
X206336071Y-133701623D01*
X206336071Y-133701623D01*
G37*
D13*
X205740000Y-134475000D03*
D12*
G36*
X206336071Y-135751623D02*
X206368781Y-135756475D01*
X206400857Y-135764509D01*
X206431991Y-135775649D01*
X206461884Y-135789787D01*
X206490247Y-135806787D01*
X206516807Y-135826485D01*
X206541308Y-135848692D01*
X206563515Y-135873193D01*
X206583213Y-135899753D01*
X206600213Y-135928116D01*
X206614351Y-135958009D01*
X206625491Y-135989143D01*
X206633525Y-136021219D01*
X206638377Y-136053929D01*
X206640000Y-136086956D01*
X206640000Y-136963044D01*
X206638377Y-136996071D01*
X206633525Y-137028781D01*
X206625491Y-137060857D01*
X206614351Y-137091991D01*
X206600213Y-137121884D01*
X206583213Y-137150247D01*
X206563515Y-137176807D01*
X206541308Y-137201308D01*
X206516807Y-137223515D01*
X206490247Y-137243213D01*
X206461884Y-137260213D01*
X206431991Y-137274351D01*
X206400857Y-137285491D01*
X206368781Y-137293525D01*
X206336071Y-137298377D01*
X206303044Y-137300000D01*
X205176956Y-137300000D01*
X205143929Y-137298377D01*
X205111219Y-137293525D01*
X205079143Y-137285491D01*
X205048009Y-137274351D01*
X205018116Y-137260213D01*
X204989753Y-137243213D01*
X204963193Y-137223515D01*
X204938692Y-137201308D01*
X204916485Y-137176807D01*
X204896787Y-137150247D01*
X204879787Y-137121884D01*
X204865649Y-137091991D01*
X204854509Y-137060857D01*
X204846475Y-137028781D01*
X204841623Y-136996071D01*
X204840000Y-136963044D01*
X204840000Y-136086956D01*
X204841623Y-136053929D01*
X204846475Y-136021219D01*
X204854509Y-135989143D01*
X204865649Y-135958009D01*
X204879787Y-135928116D01*
X204896787Y-135899753D01*
X204916485Y-135873193D01*
X204938692Y-135848692D01*
X204963193Y-135826485D01*
X204989753Y-135806787D01*
X205018116Y-135789787D01*
X205048009Y-135775649D01*
X205079143Y-135764509D01*
X205111219Y-135756475D01*
X205143929Y-135751623D01*
X205176956Y-135750000D01*
X206303044Y-135750000D01*
X206336071Y-135751623D01*
X206336071Y-135751623D01*
G37*
D13*
X205740000Y-136525000D03*
G04 #@! TD*
D16*
G04 #@! TO.C,J6*
X39370000Y-146685000D03*
D17*
X41910000Y-146685000D03*
X44450000Y-146685000D03*
G04 #@! TD*
D19*
G04 #@! TO.C,Q7*
X102235000Y-111125000D03*
D20*
X104775000Y-111125000D03*
X107315000Y-111125000D03*
G04 #@! TD*
D14*
G04 #@! TO.C,D1*
X256540000Y-112395000D03*
X256540000Y-107315000D03*
X256540000Y-102235000D03*
D15*
X256540000Y-97155000D03*
G04 #@! TD*
D30*
G04 #@! TO.C,C2*
X240030000Y-100965000D03*
D18*
X240030000Y-108465000D03*
G04 #@! TD*
G04 #@! TO.C,C3*
X200660000Y-108465000D03*
D30*
X200660000Y-100965000D03*
G04 #@! TD*
G04 #@! TO.C,C1*
X220345000Y-100965000D03*
D18*
X220345000Y-108465000D03*
G04 #@! TD*
D12*
G04 #@! TO.C,J2*
G36*
X266526141Y-64801435D02*
X266555076Y-64805727D01*
X266583451Y-64812835D01*
X266610993Y-64822690D01*
X266637436Y-64835196D01*
X266662526Y-64850235D01*
X266686021Y-64867660D01*
X266707696Y-64887304D01*
X266727340Y-64908979D01*
X266744765Y-64932474D01*
X266759804Y-64957564D01*
X266772310Y-64984007D01*
X266782165Y-65011549D01*
X266789273Y-65039924D01*
X266793565Y-65068859D01*
X266795000Y-65098076D01*
X266795000Y-66981924D01*
X266793565Y-67011141D01*
X266789273Y-67040076D01*
X266782165Y-67068451D01*
X266772310Y-67095993D01*
X266759804Y-67122436D01*
X266744765Y-67147526D01*
X266727340Y-67171021D01*
X266707696Y-67192696D01*
X266686021Y-67212340D01*
X266662526Y-67229765D01*
X266637436Y-67244804D01*
X266610993Y-67257310D01*
X266583451Y-67267165D01*
X266555076Y-67274273D01*
X266526141Y-67278565D01*
X266496924Y-67280000D01*
X263093076Y-67280000D01*
X263063859Y-67278565D01*
X263034924Y-67274273D01*
X263006549Y-67267165D01*
X262979007Y-67257310D01*
X262952564Y-67244804D01*
X262927474Y-67229765D01*
X262903979Y-67212340D01*
X262882304Y-67192696D01*
X262862660Y-67171021D01*
X262845235Y-67147526D01*
X262830196Y-67122436D01*
X262817690Y-67095993D01*
X262807835Y-67068451D01*
X262800727Y-67040076D01*
X262796435Y-67011141D01*
X262795000Y-66981924D01*
X262795000Y-65098076D01*
X262796435Y-65068859D01*
X262800727Y-65039924D01*
X262807835Y-65011549D01*
X262817690Y-64984007D01*
X262830196Y-64957564D01*
X262845235Y-64932474D01*
X262862660Y-64908979D01*
X262882304Y-64887304D01*
X262903979Y-64867660D01*
X262927474Y-64850235D01*
X262952564Y-64835196D01*
X262979007Y-64822690D01*
X263006549Y-64812835D01*
X263034924Y-64805727D01*
X263063859Y-64801435D01*
X263093076Y-64800000D01*
X266496924Y-64800000D01*
X266526141Y-64801435D01*
X266526141Y-64801435D01*
G37*
D21*
X264795000Y-66040000D03*
D22*
X264795000Y-71120000D03*
X264795000Y-76200000D03*
X264795000Y-81280000D03*
X264795000Y-86360000D03*
G04 #@! TD*
D31*
G04 #@! TO.C,D2*
X215900000Y-49530000D03*
D29*
X215900000Y-41910000D03*
G04 #@! TD*
D32*
G04 #@! TO.C,C11*
X140970000Y-128905000D03*
X134470000Y-128905000D03*
G04 #@! TD*
G04 #@! TO.C,C9*
X164390000Y-128905000D03*
X170890000Y-128905000D03*
G04 #@! TD*
D12*
G04 #@! TO.C,C10*
G36*
X137241071Y-120386623D02*
X137273781Y-120391475D01*
X137305857Y-120399509D01*
X137336991Y-120410649D01*
X137366884Y-120424787D01*
X137395247Y-120441787D01*
X137421807Y-120461485D01*
X137446308Y-120483692D01*
X137468515Y-120508193D01*
X137488213Y-120534753D01*
X137505213Y-120563116D01*
X137519351Y-120593009D01*
X137530491Y-120624143D01*
X137538525Y-120656219D01*
X137543377Y-120688929D01*
X137545000Y-120721956D01*
X137545000Y-121848044D01*
X137543377Y-121881071D01*
X137538525Y-121913781D01*
X137530491Y-121945857D01*
X137519351Y-121976991D01*
X137505213Y-122006884D01*
X137488213Y-122035247D01*
X137468515Y-122061807D01*
X137446308Y-122086308D01*
X137421807Y-122108515D01*
X137395247Y-122128213D01*
X137366884Y-122145213D01*
X137336991Y-122159351D01*
X137305857Y-122170491D01*
X137273781Y-122178525D01*
X137241071Y-122183377D01*
X137208044Y-122185000D01*
X136331956Y-122185000D01*
X136298929Y-122183377D01*
X136266219Y-122178525D01*
X136234143Y-122170491D01*
X136203009Y-122159351D01*
X136173116Y-122145213D01*
X136144753Y-122128213D01*
X136118193Y-122108515D01*
X136093692Y-122086308D01*
X136071485Y-122061807D01*
X136051787Y-122035247D01*
X136034787Y-122006884D01*
X136020649Y-121976991D01*
X136009509Y-121945857D01*
X136001475Y-121913781D01*
X135996623Y-121881071D01*
X135995000Y-121848044D01*
X135995000Y-120721956D01*
X135996623Y-120688929D01*
X136001475Y-120656219D01*
X136009509Y-120624143D01*
X136020649Y-120593009D01*
X136034787Y-120563116D01*
X136051787Y-120534753D01*
X136071485Y-120508193D01*
X136093692Y-120483692D01*
X136118193Y-120461485D01*
X136144753Y-120441787D01*
X136173116Y-120424787D01*
X136203009Y-120410649D01*
X136234143Y-120399509D01*
X136266219Y-120391475D01*
X136298929Y-120386623D01*
X136331956Y-120385000D01*
X137208044Y-120385000D01*
X137241071Y-120386623D01*
X137241071Y-120386623D01*
G37*
D13*
X136770000Y-121285000D03*
D12*
G36*
X139291071Y-120386623D02*
X139323781Y-120391475D01*
X139355857Y-120399509D01*
X139386991Y-120410649D01*
X139416884Y-120424787D01*
X139445247Y-120441787D01*
X139471807Y-120461485D01*
X139496308Y-120483692D01*
X139518515Y-120508193D01*
X139538213Y-120534753D01*
X139555213Y-120563116D01*
X139569351Y-120593009D01*
X139580491Y-120624143D01*
X139588525Y-120656219D01*
X139593377Y-120688929D01*
X139595000Y-120721956D01*
X139595000Y-121848044D01*
X139593377Y-121881071D01*
X139588525Y-121913781D01*
X139580491Y-121945857D01*
X139569351Y-121976991D01*
X139555213Y-122006884D01*
X139538213Y-122035247D01*
X139518515Y-122061807D01*
X139496308Y-122086308D01*
X139471807Y-122108515D01*
X139445247Y-122128213D01*
X139416884Y-122145213D01*
X139386991Y-122159351D01*
X139355857Y-122170491D01*
X139323781Y-122178525D01*
X139291071Y-122183377D01*
X139258044Y-122185000D01*
X138381956Y-122185000D01*
X138348929Y-122183377D01*
X138316219Y-122178525D01*
X138284143Y-122170491D01*
X138253009Y-122159351D01*
X138223116Y-122145213D01*
X138194753Y-122128213D01*
X138168193Y-122108515D01*
X138143692Y-122086308D01*
X138121485Y-122061807D01*
X138101787Y-122035247D01*
X138084787Y-122006884D01*
X138070649Y-121976991D01*
X138059509Y-121945857D01*
X138051475Y-121913781D01*
X138046623Y-121881071D01*
X138045000Y-121848044D01*
X138045000Y-120721956D01*
X138046623Y-120688929D01*
X138051475Y-120656219D01*
X138059509Y-120624143D01*
X138070649Y-120593009D01*
X138084787Y-120563116D01*
X138101787Y-120534753D01*
X138121485Y-120508193D01*
X138143692Y-120483692D01*
X138168193Y-120461485D01*
X138194753Y-120441787D01*
X138223116Y-120424787D01*
X138253009Y-120410649D01*
X138284143Y-120399509D01*
X138316219Y-120391475D01*
X138348929Y-120386623D01*
X138381956Y-120385000D01*
X139258044Y-120385000D01*
X139291071Y-120386623D01*
X139291071Y-120386623D01*
G37*
D13*
X138820000Y-121285000D03*
G04 #@! TD*
D12*
G04 #@! TO.C,C8*
G36*
X168891071Y-120386623D02*
X168923781Y-120391475D01*
X168955857Y-120399509D01*
X168986991Y-120410649D01*
X169016884Y-120424787D01*
X169045247Y-120441787D01*
X169071807Y-120461485D01*
X169096308Y-120483692D01*
X169118515Y-120508193D01*
X169138213Y-120534753D01*
X169155213Y-120563116D01*
X169169351Y-120593009D01*
X169180491Y-120624143D01*
X169188525Y-120656219D01*
X169193377Y-120688929D01*
X169195000Y-120721956D01*
X169195000Y-121848044D01*
X169193377Y-121881071D01*
X169188525Y-121913781D01*
X169180491Y-121945857D01*
X169169351Y-121976991D01*
X169155213Y-122006884D01*
X169138213Y-122035247D01*
X169118515Y-122061807D01*
X169096308Y-122086308D01*
X169071807Y-122108515D01*
X169045247Y-122128213D01*
X169016884Y-122145213D01*
X168986991Y-122159351D01*
X168955857Y-122170491D01*
X168923781Y-122178525D01*
X168891071Y-122183377D01*
X168858044Y-122185000D01*
X167981956Y-122185000D01*
X167948929Y-122183377D01*
X167916219Y-122178525D01*
X167884143Y-122170491D01*
X167853009Y-122159351D01*
X167823116Y-122145213D01*
X167794753Y-122128213D01*
X167768193Y-122108515D01*
X167743692Y-122086308D01*
X167721485Y-122061807D01*
X167701787Y-122035247D01*
X167684787Y-122006884D01*
X167670649Y-121976991D01*
X167659509Y-121945857D01*
X167651475Y-121913781D01*
X167646623Y-121881071D01*
X167645000Y-121848044D01*
X167645000Y-120721956D01*
X167646623Y-120688929D01*
X167651475Y-120656219D01*
X167659509Y-120624143D01*
X167670649Y-120593009D01*
X167684787Y-120563116D01*
X167701787Y-120534753D01*
X167721485Y-120508193D01*
X167743692Y-120483692D01*
X167768193Y-120461485D01*
X167794753Y-120441787D01*
X167823116Y-120424787D01*
X167853009Y-120410649D01*
X167884143Y-120399509D01*
X167916219Y-120391475D01*
X167948929Y-120386623D01*
X167981956Y-120385000D01*
X168858044Y-120385000D01*
X168891071Y-120386623D01*
X168891071Y-120386623D01*
G37*
D13*
X168420000Y-121285000D03*
D12*
G36*
X166841071Y-120386623D02*
X166873781Y-120391475D01*
X166905857Y-120399509D01*
X166936991Y-120410649D01*
X166966884Y-120424787D01*
X166995247Y-120441787D01*
X167021807Y-120461485D01*
X167046308Y-120483692D01*
X167068515Y-120508193D01*
X167088213Y-120534753D01*
X167105213Y-120563116D01*
X167119351Y-120593009D01*
X167130491Y-120624143D01*
X167138525Y-120656219D01*
X167143377Y-120688929D01*
X167145000Y-120721956D01*
X167145000Y-121848044D01*
X167143377Y-121881071D01*
X167138525Y-121913781D01*
X167130491Y-121945857D01*
X167119351Y-121976991D01*
X167105213Y-122006884D01*
X167088213Y-122035247D01*
X167068515Y-122061807D01*
X167046308Y-122086308D01*
X167021807Y-122108515D01*
X166995247Y-122128213D01*
X166966884Y-122145213D01*
X166936991Y-122159351D01*
X166905857Y-122170491D01*
X166873781Y-122178525D01*
X166841071Y-122183377D01*
X166808044Y-122185000D01*
X165931956Y-122185000D01*
X165898929Y-122183377D01*
X165866219Y-122178525D01*
X165834143Y-122170491D01*
X165803009Y-122159351D01*
X165773116Y-122145213D01*
X165744753Y-122128213D01*
X165718193Y-122108515D01*
X165693692Y-122086308D01*
X165671485Y-122061807D01*
X165651787Y-122035247D01*
X165634787Y-122006884D01*
X165620649Y-121976991D01*
X165609509Y-121945857D01*
X165601475Y-121913781D01*
X165596623Y-121881071D01*
X165595000Y-121848044D01*
X165595000Y-120721956D01*
X165596623Y-120688929D01*
X165601475Y-120656219D01*
X165609509Y-120624143D01*
X165620649Y-120593009D01*
X165634787Y-120563116D01*
X165651787Y-120534753D01*
X165671485Y-120508193D01*
X165693692Y-120483692D01*
X165718193Y-120461485D01*
X165744753Y-120441787D01*
X165773116Y-120424787D01*
X165803009Y-120410649D01*
X165834143Y-120399509D01*
X165866219Y-120391475D01*
X165898929Y-120386623D01*
X165931956Y-120385000D01*
X166808044Y-120385000D01*
X166841071Y-120386623D01*
X166841071Y-120386623D01*
G37*
D13*
X166370000Y-121285000D03*
G04 #@! TD*
D12*
G04 #@! TO.C,R1*
G36*
X198081071Y-135751623D02*
X198113781Y-135756475D01*
X198145857Y-135764509D01*
X198176991Y-135775649D01*
X198206884Y-135789787D01*
X198235247Y-135806787D01*
X198261807Y-135826485D01*
X198286308Y-135848692D01*
X198308515Y-135873193D01*
X198328213Y-135899753D01*
X198345213Y-135928116D01*
X198359351Y-135958009D01*
X198370491Y-135989143D01*
X198378525Y-136021219D01*
X198383377Y-136053929D01*
X198385000Y-136086956D01*
X198385000Y-136963044D01*
X198383377Y-136996071D01*
X198378525Y-137028781D01*
X198370491Y-137060857D01*
X198359351Y-137091991D01*
X198345213Y-137121884D01*
X198328213Y-137150247D01*
X198308515Y-137176807D01*
X198286308Y-137201308D01*
X198261807Y-137223515D01*
X198235247Y-137243213D01*
X198206884Y-137260213D01*
X198176991Y-137274351D01*
X198145857Y-137285491D01*
X198113781Y-137293525D01*
X198081071Y-137298377D01*
X198048044Y-137300000D01*
X196921956Y-137300000D01*
X196888929Y-137298377D01*
X196856219Y-137293525D01*
X196824143Y-137285491D01*
X196793009Y-137274351D01*
X196763116Y-137260213D01*
X196734753Y-137243213D01*
X196708193Y-137223515D01*
X196683692Y-137201308D01*
X196661485Y-137176807D01*
X196641787Y-137150247D01*
X196624787Y-137121884D01*
X196610649Y-137091991D01*
X196599509Y-137060857D01*
X196591475Y-137028781D01*
X196586623Y-136996071D01*
X196585000Y-136963044D01*
X196585000Y-136086956D01*
X196586623Y-136053929D01*
X196591475Y-136021219D01*
X196599509Y-135989143D01*
X196610649Y-135958009D01*
X196624787Y-135928116D01*
X196641787Y-135899753D01*
X196661485Y-135873193D01*
X196683692Y-135848692D01*
X196708193Y-135826485D01*
X196734753Y-135806787D01*
X196763116Y-135789787D01*
X196793009Y-135775649D01*
X196824143Y-135764509D01*
X196856219Y-135756475D01*
X196888929Y-135751623D01*
X196921956Y-135750000D01*
X198048044Y-135750000D01*
X198081071Y-135751623D01*
X198081071Y-135751623D01*
G37*
D13*
X197485000Y-136525000D03*
D12*
G36*
X198081071Y-133701623D02*
X198113781Y-133706475D01*
X198145857Y-133714509D01*
X198176991Y-133725649D01*
X198206884Y-133739787D01*
X198235247Y-133756787D01*
X198261807Y-133776485D01*
X198286308Y-133798692D01*
X198308515Y-133823193D01*
X198328213Y-133849753D01*
X198345213Y-133878116D01*
X198359351Y-133908009D01*
X198370491Y-133939143D01*
X198378525Y-133971219D01*
X198383377Y-134003929D01*
X198385000Y-134036956D01*
X198385000Y-134913044D01*
X198383377Y-134946071D01*
X198378525Y-134978781D01*
X198370491Y-135010857D01*
X198359351Y-135041991D01*
X198345213Y-135071884D01*
X198328213Y-135100247D01*
X198308515Y-135126807D01*
X198286308Y-135151308D01*
X198261807Y-135173515D01*
X198235247Y-135193213D01*
X198206884Y-135210213D01*
X198176991Y-135224351D01*
X198145857Y-135235491D01*
X198113781Y-135243525D01*
X198081071Y-135248377D01*
X198048044Y-135250000D01*
X196921956Y-135250000D01*
X196888929Y-135248377D01*
X196856219Y-135243525D01*
X196824143Y-135235491D01*
X196793009Y-135224351D01*
X196763116Y-135210213D01*
X196734753Y-135193213D01*
X196708193Y-135173515D01*
X196683692Y-135151308D01*
X196661485Y-135126807D01*
X196641787Y-135100247D01*
X196624787Y-135071884D01*
X196610649Y-135041991D01*
X196599509Y-135010857D01*
X196591475Y-134978781D01*
X196586623Y-134946071D01*
X196585000Y-134913044D01*
X196585000Y-134036956D01*
X196586623Y-134003929D01*
X196591475Y-133971219D01*
X196599509Y-133939143D01*
X196610649Y-133908009D01*
X196624787Y-133878116D01*
X196641787Y-133849753D01*
X196661485Y-133823193D01*
X196683692Y-133798692D01*
X196708193Y-133776485D01*
X196734753Y-133756787D01*
X196763116Y-133739787D01*
X196793009Y-133725649D01*
X196824143Y-133714509D01*
X196856219Y-133706475D01*
X196888929Y-133701623D01*
X196921956Y-133700000D01*
X198048044Y-133700000D01*
X198081071Y-133701623D01*
X198081071Y-133701623D01*
G37*
D13*
X197485000Y-134475000D03*
G04 #@! TD*
D16*
G04 #@! TO.C,JP3*
X163195000Y-52070000D03*
D17*
X160655000Y-52070000D03*
G04 #@! TD*
D18*
G04 #@! TO.C,C7*
X114935000Y-75840000D03*
X114935000Y-53340000D03*
G04 #@! TD*
G04 #@! TO.C,C4*
X123190000Y-53340000D03*
X123190000Y-75840000D03*
G04 #@! TD*
D33*
G04 #@! TO.C,L1*
X44115000Y-42275000D03*
X44115000Y-80915000D03*
G04 #@! TD*
D19*
G04 #@! TO.C,Q4*
X79375000Y-111125000D03*
D20*
X81915000Y-111125000D03*
X84455000Y-111125000D03*
G04 #@! TD*
D17*
G04 #@! TO.C,JP5*
X160655000Y-84455000D03*
X158115000Y-84455000D03*
D16*
X155575000Y-84455000D03*
G04 #@! TD*
G04 #@! TO.C,J3*
X200660000Y-147320000D03*
D17*
X203200000Y-147320000D03*
X205740000Y-147320000D03*
X208280000Y-147320000D03*
X210820000Y-147320000D03*
X213360000Y-147320000D03*
G04 #@! TD*
D16*
G04 #@! TO.C,J5*
X73025000Y-146685000D03*
D17*
X75565000Y-146685000D03*
X78105000Y-146685000D03*
X80645000Y-146685000D03*
X83185000Y-146685000D03*
X85725000Y-146685000D03*
X88265000Y-146685000D03*
X90805000Y-146685000D03*
G04 #@! TD*
D34*
G04 #@! TO.C,Q5*
X211455000Y-130175000D03*
D35*
X216535000Y-130175000D03*
X213995000Y-130175000D03*
G04 #@! TD*
G04 #@! TO.C,Q1*
X197485000Y-130175000D03*
X200025000Y-130175000D03*
D34*
X194945000Y-130175000D03*
G04 #@! TD*
D35*
G04 #@! TO.C,Q2*
X205740000Y-130175000D03*
X208280000Y-130175000D03*
D34*
X203200000Y-130175000D03*
G04 #@! TD*
D18*
G04 #@! TO.C,C5*
X104140000Y-78740000D03*
X104140000Y-51240000D03*
G04 #@! TD*
G04 #@! TO.C,C6*
X95250000Y-51240000D03*
X95250000Y-78740000D03*
G04 #@! TD*
D12*
G04 #@! TO.C,J11*
G36*
X168611141Y-39911435D02*
X168640076Y-39915727D01*
X168668451Y-39922835D01*
X168695993Y-39932690D01*
X168722436Y-39945196D01*
X168747526Y-39960235D01*
X168771021Y-39977660D01*
X168792696Y-39997304D01*
X168812340Y-40018979D01*
X168829765Y-40042474D01*
X168844804Y-40067564D01*
X168857310Y-40094007D01*
X168867165Y-40121549D01*
X168874273Y-40149924D01*
X168878565Y-40178859D01*
X168880000Y-40208076D01*
X168880000Y-43611924D01*
X168878565Y-43641141D01*
X168874273Y-43670076D01*
X168867165Y-43698451D01*
X168857310Y-43725993D01*
X168844804Y-43752436D01*
X168829765Y-43777526D01*
X168812340Y-43801021D01*
X168792696Y-43822696D01*
X168771021Y-43842340D01*
X168747526Y-43859765D01*
X168722436Y-43874804D01*
X168695993Y-43887310D01*
X168668451Y-43897165D01*
X168640076Y-43904273D01*
X168611141Y-43908565D01*
X168581924Y-43910000D01*
X166698076Y-43910000D01*
X166668859Y-43908565D01*
X166639924Y-43904273D01*
X166611549Y-43897165D01*
X166584007Y-43887310D01*
X166557564Y-43874804D01*
X166532474Y-43859765D01*
X166508979Y-43842340D01*
X166487304Y-43822696D01*
X166467660Y-43801021D01*
X166450235Y-43777526D01*
X166435196Y-43752436D01*
X166422690Y-43725993D01*
X166412835Y-43698451D01*
X166405727Y-43670076D01*
X166401435Y-43641141D01*
X166400000Y-43611924D01*
X166400000Y-40208076D01*
X166401435Y-40178859D01*
X166405727Y-40149924D01*
X166412835Y-40121549D01*
X166422690Y-40094007D01*
X166435196Y-40067564D01*
X166450235Y-40042474D01*
X166467660Y-40018979D01*
X166487304Y-39997304D01*
X166508979Y-39977660D01*
X166532474Y-39960235D01*
X166557564Y-39945196D01*
X166584007Y-39932690D01*
X166611549Y-39922835D01*
X166639924Y-39915727D01*
X166668859Y-39911435D01*
X166698076Y-39910000D01*
X168581924Y-39910000D01*
X168611141Y-39911435D01*
X168611141Y-39911435D01*
G37*
D21*
X167640000Y-41910000D03*
D36*
X172720000Y-41910000D03*
G04 #@! TD*
G04 #@! TO.C,J12*
X136525000Y-41910000D03*
D12*
G36*
X132416141Y-39911435D02*
X132445076Y-39915727D01*
X132473451Y-39922835D01*
X132500993Y-39932690D01*
X132527436Y-39945196D01*
X132552526Y-39960235D01*
X132576021Y-39977660D01*
X132597696Y-39997304D01*
X132617340Y-40018979D01*
X132634765Y-40042474D01*
X132649804Y-40067564D01*
X132662310Y-40094007D01*
X132672165Y-40121549D01*
X132679273Y-40149924D01*
X132683565Y-40178859D01*
X132685000Y-40208076D01*
X132685000Y-43611924D01*
X132683565Y-43641141D01*
X132679273Y-43670076D01*
X132672165Y-43698451D01*
X132662310Y-43725993D01*
X132649804Y-43752436D01*
X132634765Y-43777526D01*
X132617340Y-43801021D01*
X132597696Y-43822696D01*
X132576021Y-43842340D01*
X132552526Y-43859765D01*
X132527436Y-43874804D01*
X132500993Y-43887310D01*
X132473451Y-43897165D01*
X132445076Y-43904273D01*
X132416141Y-43908565D01*
X132386924Y-43910000D01*
X130503076Y-43910000D01*
X130473859Y-43908565D01*
X130444924Y-43904273D01*
X130416549Y-43897165D01*
X130389007Y-43887310D01*
X130362564Y-43874804D01*
X130337474Y-43859765D01*
X130313979Y-43842340D01*
X130292304Y-43822696D01*
X130272660Y-43801021D01*
X130255235Y-43777526D01*
X130240196Y-43752436D01*
X130227690Y-43725993D01*
X130217835Y-43698451D01*
X130210727Y-43670076D01*
X130206435Y-43641141D01*
X130205000Y-43611924D01*
X130205000Y-40208076D01*
X130206435Y-40178859D01*
X130210727Y-40149924D01*
X130217835Y-40121549D01*
X130227690Y-40094007D01*
X130240196Y-40067564D01*
X130255235Y-40042474D01*
X130272660Y-40018979D01*
X130292304Y-39997304D01*
X130313979Y-39977660D01*
X130337474Y-39960235D01*
X130362564Y-39945196D01*
X130389007Y-39932690D01*
X130416549Y-39922835D01*
X130444924Y-39915727D01*
X130473859Y-39911435D01*
X130503076Y-39910000D01*
X132386924Y-39910000D01*
X132416141Y-39911435D01*
X132416141Y-39911435D01*
G37*
D21*
X131445000Y-41910000D03*
G04 #@! TD*
D12*
G04 #@! TO.C,J13*
G36*
X33481141Y-45751435D02*
X33510076Y-45755727D01*
X33538451Y-45762835D01*
X33565993Y-45772690D01*
X33592436Y-45785196D01*
X33617526Y-45800235D01*
X33641021Y-45817660D01*
X33662696Y-45837304D01*
X33682340Y-45858979D01*
X33699765Y-45882474D01*
X33714804Y-45907564D01*
X33727310Y-45934007D01*
X33737165Y-45961549D01*
X33744273Y-45989924D01*
X33748565Y-46018859D01*
X33750000Y-46048076D01*
X33750000Y-47931924D01*
X33748565Y-47961141D01*
X33744273Y-47990076D01*
X33737165Y-48018451D01*
X33727310Y-48045993D01*
X33714804Y-48072436D01*
X33699765Y-48097526D01*
X33682340Y-48121021D01*
X33662696Y-48142696D01*
X33641021Y-48162340D01*
X33617526Y-48179765D01*
X33592436Y-48194804D01*
X33565993Y-48207310D01*
X33538451Y-48217165D01*
X33510076Y-48224273D01*
X33481141Y-48228565D01*
X33451924Y-48230000D01*
X30048076Y-48230000D01*
X30018859Y-48228565D01*
X29989924Y-48224273D01*
X29961549Y-48217165D01*
X29934007Y-48207310D01*
X29907564Y-48194804D01*
X29882474Y-48179765D01*
X29858979Y-48162340D01*
X29837304Y-48142696D01*
X29817660Y-48121021D01*
X29800235Y-48097526D01*
X29785196Y-48072436D01*
X29772690Y-48045993D01*
X29762835Y-48018451D01*
X29755727Y-47990076D01*
X29751435Y-47961141D01*
X29750000Y-47931924D01*
X29750000Y-46048076D01*
X29751435Y-46018859D01*
X29755727Y-45989924D01*
X29762835Y-45961549D01*
X29772690Y-45934007D01*
X29785196Y-45907564D01*
X29800235Y-45882474D01*
X29817660Y-45858979D01*
X29837304Y-45837304D01*
X29858979Y-45817660D01*
X29882474Y-45800235D01*
X29907564Y-45785196D01*
X29934007Y-45772690D01*
X29961549Y-45762835D01*
X29989924Y-45755727D01*
X30018859Y-45751435D01*
X30048076Y-45750000D01*
X33451924Y-45750000D01*
X33481141Y-45751435D01*
X33481141Y-45751435D01*
G37*
D21*
X31750000Y-46990000D03*
D22*
X31750000Y-41910000D03*
G04 #@! TD*
G04 #@! TO.C,J1*
X264795000Y-46990000D03*
D12*
G36*
X266526141Y-40671435D02*
X266555076Y-40675727D01*
X266583451Y-40682835D01*
X266610993Y-40692690D01*
X266637436Y-40705196D01*
X266662526Y-40720235D01*
X266686021Y-40737660D01*
X266707696Y-40757304D01*
X266727340Y-40778979D01*
X266744765Y-40802474D01*
X266759804Y-40827564D01*
X266772310Y-40854007D01*
X266782165Y-40881549D01*
X266789273Y-40909924D01*
X266793565Y-40938859D01*
X266795000Y-40968076D01*
X266795000Y-42851924D01*
X266793565Y-42881141D01*
X266789273Y-42910076D01*
X266782165Y-42938451D01*
X266772310Y-42965993D01*
X266759804Y-42992436D01*
X266744765Y-43017526D01*
X266727340Y-43041021D01*
X266707696Y-43062696D01*
X266686021Y-43082340D01*
X266662526Y-43099765D01*
X266637436Y-43114804D01*
X266610993Y-43127310D01*
X266583451Y-43137165D01*
X266555076Y-43144273D01*
X266526141Y-43148565D01*
X266496924Y-43150000D01*
X263093076Y-43150000D01*
X263063859Y-43148565D01*
X263034924Y-43144273D01*
X263006549Y-43137165D01*
X262979007Y-43127310D01*
X262952564Y-43114804D01*
X262927474Y-43099765D01*
X262903979Y-43082340D01*
X262882304Y-43062696D01*
X262862660Y-43041021D01*
X262845235Y-43017526D01*
X262830196Y-42992436D01*
X262817690Y-42965993D01*
X262807835Y-42938451D01*
X262800727Y-42910076D01*
X262796435Y-42881141D01*
X262795000Y-42851924D01*
X262795000Y-40968076D01*
X262796435Y-40938859D01*
X262800727Y-40909924D01*
X262807835Y-40881549D01*
X262817690Y-40854007D01*
X262830196Y-40827564D01*
X262845235Y-40802474D01*
X262862660Y-40778979D01*
X262882304Y-40757304D01*
X262903979Y-40737660D01*
X262927474Y-40720235D01*
X262952564Y-40705196D01*
X262979007Y-40692690D01*
X263006549Y-40682835D01*
X263034924Y-40675727D01*
X263063859Y-40671435D01*
X263093076Y-40670000D01*
X266496924Y-40670000D01*
X266526141Y-40671435D01*
X266526141Y-40671435D01*
G37*
D21*
X264795000Y-41910000D03*
G04 #@! TD*
D12*
G04 #@! TO.C,J4*
G36*
X266526141Y-100996435D02*
X266555076Y-101000727D01*
X266583451Y-101007835D01*
X266610993Y-101017690D01*
X266637436Y-101030196D01*
X266662526Y-101045235D01*
X266686021Y-101062660D01*
X266707696Y-101082304D01*
X266727340Y-101103979D01*
X266744765Y-101127474D01*
X266759804Y-101152564D01*
X266772310Y-101179007D01*
X266782165Y-101206549D01*
X266789273Y-101234924D01*
X266793565Y-101263859D01*
X266795000Y-101293076D01*
X266795000Y-103176924D01*
X266793565Y-103206141D01*
X266789273Y-103235076D01*
X266782165Y-103263451D01*
X266772310Y-103290993D01*
X266759804Y-103317436D01*
X266744765Y-103342526D01*
X266727340Y-103366021D01*
X266707696Y-103387696D01*
X266686021Y-103407340D01*
X266662526Y-103424765D01*
X266637436Y-103439804D01*
X266610993Y-103452310D01*
X266583451Y-103462165D01*
X266555076Y-103469273D01*
X266526141Y-103473565D01*
X266496924Y-103475000D01*
X263093076Y-103475000D01*
X263063859Y-103473565D01*
X263034924Y-103469273D01*
X263006549Y-103462165D01*
X262979007Y-103452310D01*
X262952564Y-103439804D01*
X262927474Y-103424765D01*
X262903979Y-103407340D01*
X262882304Y-103387696D01*
X262862660Y-103366021D01*
X262845235Y-103342526D01*
X262830196Y-103317436D01*
X262817690Y-103290993D01*
X262807835Y-103263451D01*
X262800727Y-103235076D01*
X262796435Y-103206141D01*
X262795000Y-103176924D01*
X262795000Y-101293076D01*
X262796435Y-101263859D01*
X262800727Y-101234924D01*
X262807835Y-101206549D01*
X262817690Y-101179007D01*
X262830196Y-101152564D01*
X262845235Y-101127474D01*
X262862660Y-101103979D01*
X262882304Y-101082304D01*
X262903979Y-101062660D01*
X262927474Y-101045235D01*
X262952564Y-101030196D01*
X262979007Y-101017690D01*
X263006549Y-101007835D01*
X263034924Y-101000727D01*
X263063859Y-100996435D01*
X263093076Y-100995000D01*
X266496924Y-100995000D01*
X266526141Y-100996435D01*
X266526141Y-100996435D01*
G37*
D21*
X264795000Y-102235000D03*
D22*
X264795000Y-107315000D03*
G04 #@! TD*
D16*
G04 #@! TO.C,TP4*
X78105000Y-133985000D03*
G04 #@! TD*
G04 #@! TO.C,TP1*
X104775000Y-133985000D03*
G04 #@! TD*
G04 #@! TO.C,TP2*
X100965000Y-133985000D03*
G04 #@! TD*
G04 #@! TO.C,TP3*
X81915000Y-133985000D03*
G04 #@! TD*
G04 #@! TO.C,TP7*
X36195000Y-133985000D03*
G04 #@! TD*
G04 #@! TO.C,TP8*
X32385000Y-133985000D03*
G04 #@! TD*
G04 #@! TO.C,JP1*
X182880000Y-102870000D03*
D17*
X185420000Y-102870000D03*
G04 #@! TD*
G04 #@! TO.C,JP2*
X185420000Y-107315000D03*
D16*
X182880000Y-107315000D03*
G04 #@! TD*
G04 #@! TO.C,JP4*
X107315000Y-45720000D03*
D17*
X109855000Y-45720000D03*
X112395000Y-45720000D03*
G04 #@! TD*
D16*
G04 #@! TO.C,JP6*
X135255000Y-84455000D03*
D17*
X137795000Y-84455000D03*
X140335000Y-84455000D03*
G04 #@! TD*
G04 #@! TO.C,J10*
X48895000Y-128905000D03*
X46355000Y-128905000D03*
X43815000Y-128905000D03*
X41275000Y-128905000D03*
X38735000Y-128905000D03*
X36195000Y-128905000D03*
D16*
X33655000Y-128905000D03*
G04 #@! TD*
G04 #@! TO.C,J7*
X102235000Y-128905000D03*
D17*
X104775000Y-128905000D03*
X107315000Y-128905000D03*
X109855000Y-128905000D03*
X112395000Y-128905000D03*
X114935000Y-128905000D03*
X117475000Y-128905000D03*
G04 #@! TD*
G04 #@! TO.C,J9*
X71755000Y-128905000D03*
X69215000Y-128905000D03*
X66675000Y-128905000D03*
X64135000Y-128905000D03*
X61595000Y-128905000D03*
X59055000Y-128905000D03*
D16*
X56515000Y-128905000D03*
G04 #@! TD*
G04 #@! TO.C,J8*
X79375000Y-128905000D03*
D17*
X81915000Y-128905000D03*
X84455000Y-128905000D03*
X86995000Y-128905000D03*
X89535000Y-128905000D03*
X92075000Y-128905000D03*
X94615000Y-128905000D03*
G04 #@! TD*
D29*
G04 #@! TO.C,D3*
X215900000Y-78740000D03*
D31*
X215900000Y-86360000D03*
G04 #@! TD*
G04 #@! TO.C,D4*
X215900000Y-67945000D03*
D29*
X215900000Y-60325000D03*
G04 #@! TD*
D18*
G04 #@! TO.C,R16*
X175895000Y-78740000D03*
D27*
X175895000Y-63500000D03*
G04 #@! TD*
D18*
G04 #@! TO.C,R14*
X180975000Y-63500000D03*
D27*
X180975000Y-78740000D03*
G04 #@! TD*
G04 #@! TO.C,R13*
X150495000Y-78740000D03*
D18*
X150495000Y-63500000D03*
G04 #@! TD*
G04 #@! TO.C,R12*
X186055000Y-78740000D03*
D27*
X186055000Y-63500000D03*
G04 #@! TD*
D25*
G04 #@! TO.C,U1*
X126365000Y-94615000D03*
D24*
X141605000Y-94615000D03*
D23*
X126365000Y-114935000D03*
X141605000Y-114935000D03*
X133985000Y-114935000D03*
G04 #@! TD*
M02*
